<?xml version="1.0" encoding="utf-8"?>
<!-- Generator: Adobe Illustrator 15.1.0, SVG Export Plug-In . SVG Version: 6.00 Build 0)  -->
<!DOCTYPE svg PUBLIC "-//W3C//DTD SVG 1.1//EN" "http://www.w3.org/Graphics/SVG/1.1/DTD/svg11.dtd">
<svg version="1.1"
	 id="svg18" inkscape:version="0.92.2 2405546, 2018-03-11" sodipodi:docname="picto_plus.svg" xmlns:dc="http://purl.org/dc/elements/1.1/" xmlns:cc="http://creativecommons.org/ns#" xmlns:rdf="http://www.w3.org/1999/02/22-rdf-syntax-ns#" xmlns:svg="http://www.w3.org/2000/svg" xmlns:sodipodi="http://sodipodi.sourceforge.net/DTD/sodipodi-0.dtd" xmlns:inkscape="http://www.inkscape.org/namespaces/inkscape"
	 xmlns="http://www.w3.org/2000/svg" xmlns:xlink="http://www.w3.org/1999/xlink" x="0px" y="0px" width="36.971px"
	 height="36.814px" viewBox="0 0 36.971 36.814" enable-background="new 0 0 36.971 36.814" xml:space="preserve">
<sodipodi:namedview  id="namedview20" inkscape:pageopacity="0" inkscape:pageshadow="2" inkscape:window-width="1276" inkscape:window-height="1415" fit-margin-right="0" fit-margin-bottom="0" inkscape:window-x="1280" inkscape:window-y="21" inkscape:current-layer="svg18" pagecolor="#ffffff" bordercolor="#666666" borderopacity="1" objecttolerance="10" gridtolerance="10" guidetolerance="10" showgrid="false" fit-margin-top="0" fit-margin-left="0" inkscape:zoom="0.51304348" inkscape:cx="-220.3593" inkscape:cy="60.513947" inkscape:window-maximized="0">
	</sodipodi:namedview>
<line id="line4" fill="none" x1="-11.04" y1="-18.695" x2="-31.441" y2="-18.695"/>
<line id="line6" fill="none" x1="-21.24" y1="-28.942" x2="-21.24" y2="-8.542"/>
<g>
	<polygon fill="#FFFFFF" points="-18.494,-19.279 -18.494,-26.208 -22.033,-26.208 -22.033,-19.279 -28.963,-19.279 -28.963,-15.74 
		-22.033,-15.74 -22.033,-8.81 -18.494,-8.81 -18.494,-15.74 -11.564,-15.74 -11.564,-19.279 	"/>
	<path fill="#FFFFFF" d="M-20.263-35.017c-9.657,0-17.509,7.851-17.509,17.509C-37.772-7.852-29.921,0-20.263,0
		S-2.755-7.852-2.755-17.509C-2.755-27.166-10.606-35.017-20.263-35.017z M-20.263-3.539c-7.704,0-13.97-6.266-13.97-13.97
		c0-7.704,6.267-13.971,13.97-13.971c7.704,0,13.97,6.267,13.97,13.971C-6.293-9.805-12.559-3.539-20.263-3.539z"/>
</g>
</svg>
