<?xml version="1.0" encoding="utf-8"?>
<!-- Generator: Adobe Illustrator 15.1.0, SVG Export Plug-In . SVG Version: 6.00 Build 0)  -->
<!DOCTYPE svg PUBLIC "-//W3C//DTD SVG 1.1//EN" "http://www.w3.org/Graphics/SVG/1.1/DTD/svg11.dtd">
<svg version="1.1" id="Calque_1" xmlns="http://www.w3.org/2000/svg" xmlns:xlink="http://www.w3.org/1999/xlink" x="0px" y="0px"
	 width="4000px" height="4000px" viewBox="0 0 4000 4000" enable-background="new 0 0 4000 4000" xml:space="preserve">
<g>
	<path fill="#FFFFFF" d="M2799.875,0.665L2384.907,0c-466.202,0-767.483,309.104-767.483,787.523v363.102h-417.232
		c-36.053,0-65.249,29.229-65.249,65.283v526.093c0,36.054,29.229,65.25,65.249,65.25h417.232V3134.75
		c0,36.054,29.196,65.249,65.25,65.249h544.369c36.054,0,65.25-29.229,65.25-65.249V1807.251h487.842
		c36.053,0,65.249-29.196,65.249-65.25l0.2-526.093c0-17.312-6.892-33.89-19.109-46.141c-12.217-12.251-28.863-19.143-46.174-19.143
		h-488.008V842.82c0-147.943,35.255-223.048,227.975-223.048l279.541-0.1c36.021,0,65.217-29.229,65.217-65.25V65.915
		C2865.025,29.928,2835.863,0.733,2799.875,0.665z"/>
</g>
</svg>
