<?xml version="1.0" encoding="utf-8"?>
<!-- Generator: Adobe Illustrator 15.1.0, SVG Export Plug-In . SVG Version: 6.00 Build 0)  -->
<!DOCTYPE svg PUBLIC "-//W3C//DTD SVG 1.1//EN" "http://www.w3.org/Graphics/SVG/1.1/DTD/svg11.dtd">
<svg version="1.1"
	 id="svg8" inkscape:version="0.92.2 2405546, 2018-03-11" sodipodi:docname="mail.svg" xmlns:dc="http://purl.org/dc/elements/1.1/" xmlns:cc="http://creativecommons.org/ns#" xmlns:rdf="http://www.w3.org/1999/02/22-rdf-syntax-ns#" xmlns:svg="http://www.w3.org/2000/svg" xmlns:sodipodi="http://sodipodi.sourceforge.net/DTD/sodipodi-0.dtd" xmlns:inkscape="http://www.inkscape.org/namespaces/inkscape"
	 xmlns="http://www.w3.org/2000/svg" xmlns:xlink="http://www.w3.org/1999/xlink" x="0px" y="0px" width="64.904px"
	 height="63.775px" viewBox="0 0 64.904 63.775" enable-background="new 0 0 64.904 63.775" xml:space="preserve">
<sodipodi:namedview  id="namedview10" inkscape:current-layer="svg8" inkscape:window-y="21" inkscape:window-x="854" fit-margin-bottom="0" fit-margin-right="0" inkscape:window-height="1415" inkscape:window-width="849" inkscape:pageshadow="2" inkscape:pageopacity="0" inkscape:cy="17.827275" inkscape:cx="-83.85834" inkscape:zoom="0.67045455" fit-margin-left="0" fit-margin-top="0" showgrid="false" guidetolerance="10" gridtolerance="10" objecttolerance="10" borderopacity="1" bordercolor="#666666" pagecolor="#ffffff" inkscape:window-maximized="0">
	</sodipodi:namedview>
<g id="g824" transform="translate(-9.397,-12.271)">
	<polygon id="polygon4" fill="#FFFFFF" points="32.734,7.337 57.568,24.833 62.647,22.011 32.17,0 2.823,22.011 8.466,24.833 	"/>
	<path id="path6" inkscape:connector-curvature="0" fill="#FFFFFF" d="M0.564,26.526L32.17,45.15l32.17-19.188l0.564,29.912
		c0,0,0,7.9-8.467,7.9H6.773c0,0-6.772,0-6.772-7.337L0.564,26.526z M6.773,60.953h50.23c0,0,5.644-3.387-2.258-5.645l-22.012-5.644
		L8.466,55.31C8.466,55.31,5.644,56.438,6.773,60.953L6.773,60.953z"/>
</g>
</svg>
