<?xml version="1.0" encoding="utf-8"?>
<!-- Generator: Adobe Illustrator 15.1.0, SVG Export Plug-In . SVG Version: 6.00 Build 0)  -->
<!DOCTYPE svg PUBLIC "-//W3C//DTD SVG 1.1//EN" "http://www.w3.org/Graphics/SVG/1.1/DTD/svg11.dtd">
<svg version="1.1"
	 id="svg132" inkscape:version="0.92.2 2405546, 2018-03-11" sodipodi:docname="picto_photovoltaique.svg" xmlns:dc="http://purl.org/dc/elements/1.1/" xmlns:cc="http://creativecommons.org/ns#" xmlns:rdf="http://www.w3.org/1999/02/22-rdf-syntax-ns#" xmlns:svg="http://www.w3.org/2000/svg" xmlns:sodipodi="http://sodipodi.sourceforge.net/DTD/sodipodi-0.dtd" xmlns:inkscape="http://www.inkscape.org/namespaces/inkscape"
	 xmlns="http://www.w3.org/2000/svg" xmlns:xlink="http://www.w3.org/1999/xlink" x="0px" y="0px" width="51.449px"
	 height="63.704px" viewBox="0 0 51.449 63.704" enable-background="new 0 0 51.449 63.704" xml:space="preserve">
<sodipodi:namedview  id="namedview134" inkscape:current-layer="svg132" inkscape:window-y="21" inkscape:window-x="1280" fit-margin-bottom="0" fit-margin-right="0" inkscape:window-height="1415" inkscape:window-width="1276" inkscape:pageshadow="2" inkscape:pageopacity="0" inkscape:cy="68.933851" inkscape:cx="-176.52968" inkscape:zoom="0.41549296" fit-margin-left="0" fit-margin-top="0" showgrid="false" guidetolerance="10" gridtolerance="10" objecttolerance="10" borderopacity="1" bordercolor="#666666" pagecolor="#ffffff" inkscape:window-maximized="0">
	</sodipodi:namedview>
<g id="g92" transform="translate(-42.247,-41.577)" display="none">
	<g id="g90" display="inline">
		<g id="g88">
			<g id="g86">
				<g id="g84">
					<path id="path4" inkscape:connector-curvature="0" fill="#BCD658" d="M71.369,11.321c0.027,0.003,0.057,0,0.08-0.016
						C71.4,11.296,71.377,11.304,71.369,11.321z"/>
					<path id="path6" inkscape:connector-curvature="0" fill="#BCD658" d="M53.013,1.311l0.247,0.028
						C53.103,1.305,53.04,1.301,53.013,1.311z"/>
					<path id="path8" inkscape:connector-curvature="0" fill="#BCD658" d="M79.252,21.049c-0.016-0.013-0.019-0.01-0.028-0.018
						l0.439,0.763L79.252,21.049z"/>
					<path id="path10" inkscape:connector-curvature="0" fill="#BCD658" d="M11.472,13.919l0.192-0.212
						C11.576,13.802,11.514,13.859,11.472,13.919z"/>
					<path id="path12" inkscape:connector-curvature="0" fill="#BCD658" d="M34.678,0.938c-0.076,0.044-0.211,0.084-0.346,0.123
						C34.505,1.028,34.639,0.993,34.678,0.938z"/>
					<path id="path14" inkscape:connector-curvature="0" fill="#BCD658" d="M80.94,27.489l-0.043-0.355
						C80.861,27.155,80.872,27.285,80.94,27.489z"/>
					<path id="path16" inkscape:connector-curvature="0" fill="#BCD658" d="M84.252,39.349c0.007-0.011,0.013-0.014,0.02-0.035
						C84.261,39.297,84.256,39.318,84.252,39.349z"/>
					<path id="path18" inkscape:connector-curvature="0" fill="#BCD658" d="M83.901,34.477l-0.114-0.334
						C83.821,34.287,83.86,34.472,83.901,34.477z"/>
					<path id="path20" inkscape:connector-curvature="0" fill="#BCD658" d="M83.729,33.985l0.059,0.158
						C83.764,34.052,83.745,33.979,83.729,33.985z"/>
					<path id="path22" inkscape:connector-curvature="0" fill="#BCD658" d="M86.016,45.256c0.018-0.371-0.04-0.69-0.093-1.024
						L86.016,45.256z"/>
					<path id="path24" inkscape:connector-curvature="0" fill="#BCD658" d="M1.118,52.475l-0.057-0.071
						C1.091,52.475,1.107,52.485,1.118,52.475z"/>
					<path id="path26" inkscape:connector-curvature="0" fill="#BCD658" d="M85.206,44.765l0.028-0.257
						C85.215,44.602,85.208,44.686,85.206,44.765z"/>
					<path id="path28" inkscape:connector-curvature="0" fill="#BCD658" d="M77.772,21.825c-0.26-0.253-0.556-0.922-0.633-0.866
						C77.359,21.261,77.575,21.75,77.772,21.825z"/>
					<path id="path30" inkscape:connector-curvature="0" fill="#BCD658" d="M7.032,59.394l0.097,0.208
						C7.085,59.501,7.057,59.44,7.032,59.394z"/>
					<path id="path32" inkscape:connector-curvature="0" fill="#BCD658" d="M85.206,44.765l-0.032,0.297
						c0.019-0.022,0.032-0.058,0.05-0.087C85.212,44.908,85.205,44.837,85.206,44.765z"/>
					<polygon id="polygon34" fill="#BCD658" points="27.946,83.998 28.047,84.018 28.034,84.013 					"/>
					<path id="path36" inkscape:connector-curvature="0" fill="#BCD658" d="M30.166,84.923l-0.478-0.124
						C29.933,84.889,30.068,84.917,30.166,84.923z"/>
					<path id="path38" inkscape:connector-curvature="0" fill="#BCD658" d="M85.923,44.232l-0.065-0.582
						C85.866,43.859,85.893,44.048,85.923,44.232z"/>
					<path id="path40" inkscape:connector-curvature="0" fill="#BCD658" d="M54.613,85.357l-0.217,0.071
						C54.491,85.404,54.561,85.38,54.613,85.357z"/>
					<path id="path42" inkscape:connector-curvature="0" fill="#BCD658" d="M36.386,0.678l0.198-0.012
						C36.602,0.641,36.588,0.628,36.386,0.678z"/>
					<polygon id="polygon44" fill="#BCD658" points="22.008,8.76 22.011,8.756 22.007,8.759 					"/>
					<path id="path46" inkscape:connector-curvature="0" fill="#BCD658" d="M22.674,8.211c-0.241,0.115-0.528,0.378-0.663,0.545
						C22.238,8.614,22.438,8.46,22.674,8.211z"/>
					<path id="path48" inkscape:connector-curvature="0" fill="#BCD658" d="M20.464,9.726l0.088-0.048
						C20.518,9.693,20.491,9.708,20.464,9.726z"/>
					<polygon id="polygon50" fill="#BCD658" points="36.172,3.374 36.183,3.373 36.181,3.363 					"/>
					<path id="path52" inkscape:connector-curvature="0" fill="#BCD658" d="M32.896,4.134c-0.063-0.002-0.146,0.006-0.234,0.021
						C32.72,4.158,32.8,4.152,32.896,4.134z"/>
					<polygon id="polygon54" fill="#BCD658" points="14.26,15.423 14.271,15.414 14.271,15.409 					"/>
					<path id="path56" inkscape:connector-curvature="0" fill="#BCD658" d="M3.973,44.35c-0.073-1.568-0.077-3.375,0.051-5.175
						c0.139-1.798,0.406-3.586,0.792-5.1c-0.03-0.706,0.206-1.676,0.459-2.645l0.274-0.027l0.176-0.815
						c0.177-0.297-0.149,0.624,0.125,0.084l-0.053-0.348c0.099-0.037,0.775-1.985,0.474-0.616c0.364-1.007,0.767-2,1.206-2.978
						c0.311-0.64-0.025-0.472,0.379-1.15c0.138-0.11-0.08,0.275,0.032,0.259c1.224-2.01,0.812-2.667,2.093-4.495l-0.074,0.177
						c0.147-0.354,0.55-0.951,0.529-0.976c-0.378,0.092-0.105,0.409-0.604,0.893c-0.148-0.167,0.366-0.771,0.205-0.828
						c0.362-0.386,0.429-0.715,0.688-1.093c0.557-0.558,1.17-1.497,1.671-1.846c0.19-0.335,0.291-0.807,0.831-1.429
						c0.519-0.327,0.027,0.208,0.609-0.343L13.83,15.72c0.46-0.469,0.416-0.369,0.441-0.311c0.491-0.5,0.275-0.547,0.957-1.109
						l-0.26,0.431c0.427-0.491,0.626-0.667,1.295-1.272c0.035,0.064-0.231,0.311-0.439,0.477c0.484-0.197,0.553-0.636,0.771-0.796
						c-0.097,0.006-0.573,0.418-0.432,0.117c0.346-0.286,0.6-0.772,0.94-0.871l-0.29,0.416c0.643-0.692,0.273-0.454,1.133-1.108
						c-0.039,0.044,0.003,0.05,0,0.086c0.427-0.56,1.221-1,2.044-1.58l-0.135,0.141c0.3-0.277,0.425-0.491,0.608-0.612
						c-0.515,0.271-0.407,0.151-0.521,0.082c0.746-0.266,0.818-0.876,1.951-1.445c0.021,0.073-0.188,0.304-0.52,0.428
						c-0.236,0.418-0.188,0.587-0.75,1.101c0.354-0.313,0.806-0.635,0.755-0.498l0.013-0.247c0.232-0.164,0.433-0.271,0.615-0.387
						c0.036-0.171-0.602,0.136-0.082-0.288c0.604-0.455,0.443-0.039,0.497-0.177c0.848-0.59,0.252-0.412,1.151-0.844
						c-0.078,0.063-0.229,0.188-0.313,0.214c0.654-0.287,1.521-0.875,1.814-0.756c-0.069,0.094-0.056,0.167-0.301,0.275
						l-0.008-0.037c-0.606,0.519,0.552-0.348,0.438-0.04c-0.105-0.088,0.792-0.514,1.211-0.676L26.225,6.36
						c1.174-1.026,0.045,0.287,1.364-0.363c0.82-0.457-0.342,0.1,0.146-0.219c0.597-0.218,0.858-0.191,1.701-0.577
						c0.262-0.037,0.781-0.135,0.875,0.004C30.815,4.952,31.94,4.748,32.2,4.51c-0.956,0.143-0.857,0.435-1.98,0.593l0.245-0.256
						c0.736-0.239,1.664-0.61,2.197-0.692c-0.111-0.002-0.171-0.028-0.113-0.08c1.053-0.35,1.327-0.583,2.398-0.767
						c0.169,0.115-0.456,0.218-0.898,0.34c0.703-0.039,0.708-0.165,1.777-0.322c0.08,0.115-0.716,0.127-0.811,0.282
						c0.384-0.102,0.772-0.18,1.161-0.271c-0.003,0.009,0.003,0.017,0.005,0.026c0.134-0.237,0.897-0.146,1.61-0.302
						c1.713-0.221,1.95-0.515,2.905-0.755c0.263,0.041,0.342,0.09,0.235,0.151C40.5,2.39,40.58,2.459,40.436,2.524
						c0.587-0.063,1.293,0.135,0.971,0.238c0.923-0.097-0.341-0.1,0.226-0.188c0.424-0.014,0.849-0.023,1.272-0.02
						c-0.15-0.108-0.604-0.125,0.06-0.217c0.559-0.041,0.827-0.007,1.559,0.012c-0.106,0.052,0.226,0.169-0.321,0.152
						c0.353,0.044,0.897,0.078,1.114-0.022c-0.792-0.142,1.314-0.021,0.731-0.221c0.264,0.049,0.527,0.1,0.791,0.159
						c-0.184-0.019-0.208,0.049-0.476,0.01c0.214,0.179,0.654,0.01,0.938,0.018c0.278,0.053,1.002,0.159,1.054,0.228
						c0.256-0.02,0.862,0.109,0.965,0.208c0.376,0.02,0.047-0.103,0.162-0.141l1.261,0.228c0.049,0.103,0.105,0.374-0.089,0.371
						c0.487,0.008,0.22-0.235,0.935-0.085c-0.442,0.084,0.908,0.34,0.272,0.417c0.38,0.21,1.522,0.479,2.159,0.615
						c0.426-0.029-0.657-0.262-0.581-0.392c1.78,0.43,2.007,0.104,3.274,0.604l-0.32-0.156c0.828,0.209,0.732,0.187,1.24,0.249
						c-0.281,0.088,0.734,0.776,2.011,1.303c0.146-0.036-0.644-0.472-0.38-0.512l0.859,0.351c0.057,0.04-0.05,0.026-0.168-0.001
						c0.786,0.285,1.293,0.869,1.601,0.791c0.213,0.202,0.42,0.41,0.625,0.62l-0.241-0.256c0.144-0.024,0.978,0.386,1.158,0.458
						c0.879,0.378,1.133,0.635,1.515,1c-0.1-0.149-0.361-0.514,0.287-0.138C64.744,8.44,66.16,9.15,66.055,9.267
						c0.25,0.169,0.635,0.55,0.732,0.472l-0.146,0.118c0.206-0.169,1.091,0.487,1.78,0.977c-0.36,0.146,0.74,0.558,0.824,1.04
						c0.274-0.082,1.188,0.905,1.428,0.863c0.485,0.433,0.288,0.55,0.355,0.714l0.279,0.143c0.161,0.303,1.012,1.168,1.44,1.749
						l0.604,0.354l0.098,0.249c0.107,0.044,0.501,0.444,0.33,0.133l0.229,0.281c0.191-0.126,0.379,0.35,0.918,0.854
						c0.077,0.155,0.007,0.153-0.115,0.048c0.227,0.286,0.039,0.236,0.104,0.438c-0.111-0.244,1.128,0.784,0.602-0.055
						c0.033-0.112,0.438,0.307,0.623,0.619l-0.028,0.295l0.425,0.224c0.358,0.439,0.389,0.713,0.627,1.103
						c-0.275-0.379-0.902-0.629-0.224,0.352c-0.377-0.504-0.644-0.692-0.869-0.928c0.14,0.204,0.193,0.315-0.101,0.054
						c0.594,0.717,0.279,0.18,0.827,0.922c-0.178,0.058-0.078,0.303,0.303,1.006l-0.216-0.573c0.034,0.011,0.068,0.037,0.104,0.069
						c-0.107-0.202-0.12-0.271-0.091-0.351c0.097,0.154,0.777,0.772,0.761,0.966c-0.249-0.946,1.036,1.273,0.868,0.681
						c0.099,0.064,0.44,0.622,0.393,0.727c-0.503-0.61,0.106,0.611-0.067,0.563c0.186,0.228-0.178-0.598,0.07-0.29
						c0.235,0.396,0.301,0.75,0.365,1.005l-0.119-0.155l0.259,0.667c0.135,0.063-0.185-0.682,0.162-0.122
						c0.047,0.171,0.377,0.742,0.304,0.754c-0.249-0.225-0.297,0.051-0.569-0.434c0.225,0.401,0.862,1.724,0.766,1.116l0.227,0.503
						c-0.075-0.346-0.36-1.29,0.13-0.288L80.41,26.13l0.438,0.654l0.049,0.347c0.038-0.027,0.127,0.068,0.231,0.337
						c-0.023,0.09,0.059,0.349-0.019,0.355c0.319,0.77,0.368,0.678,0.461,0.759c0.177,0.434,0.202,0.607,0.025,0.44
						c0.198,0.606,0.568,1.656,0.604,2.101c0.317,0.794-0.014-0.179,0.244,0.264c-0.076,0.792,0.63,2.745,0.912,4.113
						c0.198-0.423,0.105,0.366,0.394,0.576c-0.134-0.281,0.005,1.342-0.271,0.15l0.148,0.729c-0.068,0.521-0.313-1.192-0.394-0.403
						c0.144,0.812,0.515,1.313,0.521,2.301c-0.227-0.307,0.14,0.744-0.102,0.521c-0.085-0.195-0.093-0.466-0.141-0.739l-0.021,0.173
						c0.113,1.811,0.284,0.5,0.495,1.442c0.096,1.111-0.102,0.884-0.188,0.953c-0.032,0.174,0.021,0.729,0.08,1.02
						c-0.144-0.671,0.075-1.255,0.212-0.95c-0.195,0.498,0.028,1.651,0.115,1.958c0.214-1.602,0.005-1.103,0.182-2.618
						c-0.089-0.203-0.269-0.155-0.268-1.057c0.146,0.555,0.106-0.049,0.125-0.212c-0.097,0.185-0.104-0.619-0.188-0.886
						c0.063-0.261,0.325,0.51,0.269-0.409l-0.289-0.138c-0.009-0.359,0.219,0.126,0.05-0.623c0.192,0.39,0.204-0.156,0.379,0.871
						c0.072-1.263-0.384-1.874-0.658-2.794c0.034,0.093,0.072,0.097,0.106,0.189c-0.108-0.189-0.169-0.555-0.244-0.829
						c-0.071-0.634,0.224,0.465,0.26,0.291l-0.22-1.007c0.004-0.021,0.008-0.027,0.014-0.029c-0.092-0.258-0.184-0.5-0.138-0.609
						c0.155,0.278,0.274,0.376,0.387,0.563l-0.436-1.015c0.121,0.093-0.078-0.905,0.185-0.174c-0.151-0.517-0.298-1.032-0.467-1.542
						l0.136-0.184c-0.142-0.362-0.177-0.361-0.066,0.089c-0.103-0.552-1.061-2.223-0.631-2.063c-0.576-1.139-0.677-1.59-1.374-2.957
						c0.633,1.012-0.359-1.321,0.226-0.212c-0.237-0.699-0.474-0.759-0.759-1.261c-0.169-0.52,0.098-0.385,0.417,0.115l-0.38-0.583
						l0.038-0.004L80.5,23.659c-0.21-0.608,0.104-0.207-0.188-0.798l-0.211-0.048l-0.133-0.435c0.015,0.182-0.196-0.146-0.452-0.548
						l0.036-0.009l-0.319-0.485c0.38,0.443-0.243-0.471-0.011-0.304c-0.258-0.425-0.255-0.44-0.771-1.174l-0.008,0.192
						c-0.721-0.923,0.116-0.134-0.408-0.924l-0.07,0.121c-0.601-1.249-1.442-1.813-1.966-2.675c0.385,0.433,0.409,0.229,0.373,0.24
						c-0.565-0.66-1.467-1.76-2.19-2.316c-0.088-0.364-0.093-0.467-0.684-1.189c-0.479-0.476-0.569-0.527-0.8-0.608
						c-0.411-0.513-1.392-1.257-1.329-1.376c-0.183-0.023-0.423-0.408-0.759-0.571l-0.021-0.092l-0.039,0.134
						c-0.701-0.969-1.604-1.118-2.395-2.004l0.184,0.092L67.911,8.63c-0.03-0.091,0.149,0,0.212-0.045
						c-0.611-0.458-1.24-0.896-1.877-1.32l0.323,0.33c-0.406-0.259-0.748-0.324-1.173-0.684c0.878,0.322-0.645-0.408-0.699-0.601
						l0.448,0.21c-0.585-0.335-0.585-0.335-0.603-0.196c-0.778-0.394-0.396-0.511-1.171-0.779l0.5,0.282
						c0.106,0.149-0.297,0.03-0.634-0.148c-0.068-0.06-0.282-0.237-0.019-0.114c-0.624-0.285-1.519-0.803-1.813-0.881
						c-0.318-0.194-0.173-0.225,0.024-0.169c-1.38-0.517-0.591-0.31-1.989-0.789l0.053-0.057l-0.501-0.113l-0.617-0.404l0.209,0.181
						C58.13,3.17,57.83,3.111,57.312,2.886l0.25-0.024c-1.306-0.396-1.442-0.683-2.733-0.905c-0.081-0.042,0.124-0.023,0.229-0.01
						c-1.206-0.157-0.83-0.431-2.061-0.521c0.081-0.017-0.038-0.092,0.016-0.111l-0.557-0.051l0.072-0.132l-0.483,0.111L51.741,1.03
						l-0.227,0.027c-0.528-0.387-1.392-0.329-2.163-0.643l0.112,0.2c-2.058,0.071-4.632-0.7-7.117-0.465L42.389,0l-1.014,0.205
						c-0.552-0.093,0.323-0.136,0.148-0.203c-1.088,0.133-0.444,0.229-1.705,0.361c-0.653-0.037,0.217-0.133,0.52-0.198
						c-1.184,0.146-2.91,0.439-3.752,0.501c-0.018,0.021-0.063,0.056-0.021,0.057c-0.77,0.187-1.805,0.321-2.655,0.524
						c0.007-0.069,0.216-0.126,0.424-0.188c-0.309,0.058-0.738,0.104-0.982,0.238l0.291-0.2c-0.662,0.126-1.883,0.575-2.065,0.477
						c0.094,0.031,0.09,0.144-0.467,0.304c-0.376-0.126-1.479,0.558-2.39,0.767c0.087-0.087,0.728-0.326,0.545-0.264
						c-0.46,0.098-0.821,0.34-1.177,0.554l0.085-0.128c-0.662,0.294-1.316,0.606-1.958,0.938c-0.394-0.085-1.84,0.893-1.773,0.688
						c-0.695,0.339,0.624-0.204-0.239,0.257c-0.277,0.03-0.764,0.447-0.793,0.3l0.084-0.064l-0.599,0.332l0.313-0.327
						c-0.511,0.301-0.813,0.648-0.786,0.753c-0.526,0.203-1.171,0.669-1.453,0.693l0.156-0.139
						c-1.302,0.868-2.405,1.094-3.267,2.028c-0.086,0.038-0.099,0.003,0.06-0.11c-0.266,0.188-0.524,0.382-0.782,0.58l0.118-0.226
						c-0.396,0.369-0.781,0.749-1.162,1.131L16.06,9.575c-0.844,0.652-2.065,1.79-3.018,2.776l0.122-0.168
						c-0.979,1.137-1.063,0.983-1.749,1.842c0.013-0.042,0.032-0.074,0.057-0.104l-0.65,0.74l0.091-0.209
						c-0.369,0.644-1.497,1.475-1.111,1.208c-0.208,0.365-0.582,0.975-0.581,1.129c-0.643,0.857-0.237,0.147-0.68,0.648
						c-0.464,0.626-0.44,0.811-1.083,1.646l-0.049-0.06c-0.259,0.42-0.389,0.702-0.736,1.293l0.078-0.19
						c-0.457,1.029-0.911,1.09-1.063,2.013c-0.287,0.379-0.648,1.194-0.761,1.088c-0.551,1.287-0.962,2.292-1.433,3.593
						c-0.301,0.117-0.104,0.276-0.524,1.013l0.14-0.012c-0.677,1.824-1.633,3.893-2.04,6.03l-0.138,0.032l0.045,0.454
						C0.434,36.605,0.047,39.614,0,41.476c0.041,0.613,0.172,1.537,0.146,2.501l-0.02-0.103c0.098,1.68,0.267,3.44,0.442,5.267
						c-0.068-0.105-0.08,0.08-0.144-0.119c0.196,0.413,0.154,1.065,0.22,1.454l0.021-0.47c0.2,0.496,0.213,1.251,0.177,1.529
						l0.296,0.782c-0.001,0.059-0.002,0.145-0.021,0.157l0.097,0.128l-0.071,0.466c0.081,0.192,0.376,1.244,0.628,1.529
						c-0.032,0.09,0.124,0.845-0.06,0.277c0.252,0.973,0.529,1.938,0.851,2.893l-0.099-0.465c0.104-0.096,0.467,0.732,0.583,1.187
						c-0.313-0.538-0.188,0.014-0.184,0.293c0.209,0.36-0.021-0.372,0.121-0.194c0.255,0.455,0.704,1.44,0.76,1.712l-0.167-0.263
						c0.317,0.622,0.236,1.01,0.54,1.63c0.35,0.521,0.475,0.968,0.61,0.757c0.435,0.78,0.02,0.375,0.128,0.645
						c0.282,0.329,0.813,1.458,0.803,1.65c0.505,0.272,1.127,2.136,1.467,2.139l0.273,0.698c0.072-0.02,0.288,0.011,0.649,0.483
						c0.251,0.505,0.076,0.466,0.114,0.646L8.6,68.834c1.64,2.809,4.696,5.831,7.296,8.246c1.264,0.967,2.936,2.06,4.479,3.067
						l-0.191-0.08c0.502,0.354,1.015,0.689,1.53,1.021c-0.36-0.266-0.727-0.521-1.078-0.796c0.354,0.188,0.651,0.301,0.98,0.503
						c1.666,1.125,4.034,2.464,6.416,3.213c1.61,0.266,0.908,0.635,2.446,0.905c-0.134-0.016-0.191,0.013-0.314,0.005
						c1.617,0.4,2.508,0.581,4.161,0.765c-0.25,0.267,1.058,0.212,0.881,0.336l0.158-0.097c0.345,0.152,1.199,0.313,1.063,0.383
						l0.747-0.043l0.044,0.137c0.96,0.163,3.042,0.252,3.539,0.522c2.419-0.021,6.216-0.066,9.216-0.51
						c0.403-0.171,1.271-0.325,1.942-0.476l0.752-0.005c0.68-0.192,1.354-0.559,2.007-0.639c-0.001,0.019-0.023,0.037-0.063,0.058
						c0.679-0.213,1.354-0.332,1.94-0.67c0.744-0.228,1.481-0.417,1.306-0.2c-0.011-0.254,1.564-0.545,1.564-0.553
						c-0.014-0.021,2.395-0.817,5.813-2.771c3.412-1.935,7.764-5.184,11.39-9.542c3.664-4.317,6.493-9.693,7.938-14.632
						c1.49-4.938,1.688-9.325,1.448-11.734c-0.111-0.331-0.16-1.224-0.32-0.887c-0.036-0.686,0.188-0.999,0.063-1.134
						c-0.096,0.933-0.319-0.287-0.486,0.617l-0.021-0.579c-0.088-0.12,0.092,0.789-0.067,0.646l0.229,0.167
						c-0.041,0.471-0.106,0.727-0.189,0.89c0.075,0.442,0.378,0.745,0.161,1.794l0.011-0.293c-0.064,0.86-0.195,0.514-0.249,0.688
						l0.02-0.188l-0.185,0.708c0.134-0.537,0.02-1.453-0.008-0.979c-0.155,1.01,0.079-0.259,0.041,0.506
						c-0.03,0.474-0.145,0.329-0.213,0.301l-0.086,0.847c-0.104-0.043,0.067-0.559-0.081-0.229c0.001,0.359-0.011,0.717-0.022,1.075
						c-0.293,0.158-0.043,1.176-0.387,1.613c0.069-0.768-0.102,0.052-0.168-0.084c-0.105,0.616-0.228,1.229-0.357,1.841
						c-0.074,0.165,0.021-0.499-0.024-0.218c-0.146,0.327-0.065,0.578-0.11,0.764c-0.104,0.142-0.345,1.356-0.509,1.259
						c-0.471,1.182,0.084,0.579-0.369,1.681c-0.149,0.115,0.258-0.904-0.007-0.438l-0.344,1.177
						c-0.015-0.122-0.089-0.282,0.072-0.71c-1.196,3.094-2.459,4.455-3.736,7.129c-0.316,0.302,0.069-0.307,0.138-0.607
						c-0.892,1.967-1.76,2.464-2.771,3.961l0.069,0.089c-1.72,1.876-3.548,4.314-5.743,6.153l0.3-0.178
						c-0.21,0.349-0.677,0.783-0.995,1.13c-0.094,0.005,0.104-0.392-0.493,0.179c0.154-0.081,0.447-0.276,0.402-0.171
						c-1.019,0.702-2.525,1.863-4.293,2.992c-1.758,1.144-3.781,2.228-5.631,2.993c-4.896,2.35-10.79,3.396-16.086,3.449
						c0.81-0.021,0.472,0.253-0.145,0.199c-1.659-0.459-2.908,0.002-4.581-0.494c-3.104-0.218-5.695-1.232-8.507-1.849l-0.01-0.139
						c-0.385-0.199-0.523-0.15-0.949-0.302l0.023-0.029c-0.977-0.418-2.208-0.813-2.733-1.138l-0.096,0.112
						c-0.579-0.26-0.25-0.236-0.869-0.455l0.05-0.056l-0.735-0.224c0.179-0.185-1.566-0.865-1.937-1.244
						c-0.727-0.378-2.099-1.135-3.068-1.919c-0.117-0.234-1.328-1.158-2.021-1.839c-1.474-1.18-3.444-3.045-4.939-4.935l-0.099,0.14
						l-0.41-0.48c0.033-0.016-0.005-0.094,0.067-0.03c-0.161-0.492-0.943-1.104-1.146-1.585c0.063,0.346,0.244,0.367,0.457,0.655
						c0.253,0.458-0.176,0.164-0.529-0.445l0.037-0.011l-0.35-0.336c0.071-0.118-0.134-0.503-0.059-0.623
						c-1.194-1.679-2.113-2.781-3.047-4.712c0.223,0.134-0.709-1.365-0.296-1.087c-0.623-1.123-0.093,0.278-0.498-0.182
						c-0.15-0.326-0.364-0.646-0.305-0.743c0.121,0.131,0.021-0.328,0.159-0.069L6.679,58.61c-0.014-0.084,0.09,0.078,0.14,0.159
						c-0.799-1.563-0.95-2.944-1.525-4.396c-0.118-0.087,0.151,0.603,0.033,0.519c-0.613-1.469-0.229-1.382-0.695-2.781l0.188,0.271
						c-0.185-0.442-0.341-0.624-0.393-1.41c0.113-0.161,0.242,0.626,0.394,0.978c-0.117-0.521-0.396-1.843-0.452-1.414
						c-0.163-0.625-0.063-0.879-0.083-1.225c-0.038-0.007,0.001,0.606-0.127,0.245C4.1,48.679,3.933,47.34,3.87,46.273
						c0.036,0.007,0.086-0.072,0.109,0.021C3.734,45.448,4.055,45.52,3.973,44.35z"/>
					<path id="path58" inkscape:connector-curvature="0" fill="#BCD658" d="M36.618,3.321l-0.436,0.052
						c0.005,0.032-0.007,0.072-0.198,0.146L36.618,3.321z"/>
					<path id="path60" inkscape:connector-curvature="0" fill="#BCD658" d="M17.943,11.776c-0.033,0.043-0.068,0.085-0.096,0.129
						C17.927,11.833,17.943,11.798,17.943,11.776z"/>
					<path id="path62" inkscape:connector-curvature="0" fill="#BCD658" d="M14.443,15.388c0.229-0.278-0.024-0.078-0.171,0.026
						C14.287,15.44,14.318,15.458,14.443,15.388z"/>
					<path id="path64" inkscape:connector-curvature="0" fill="#BCD658" d="M48.353,2.672c-0.078,0.005-0.126,0.019-0.118,0.05
						C48.341,2.708,48.366,2.691,48.353,2.672z"/>
					<path id="path66" inkscape:connector-curvature="0" fill="#BCD658" d="M75.754,18.83l-0.063-0.117
						C75.698,18.738,75.72,18.779,75.754,18.83z"/>
					<path id="path68" inkscape:connector-curvature="0" fill="#BCD658" d="M74.818,17.257c-0.054-0.071-0.132-0.156-0.251-0.272
						C74.666,17.114,74.749,17.196,74.818,17.257z"/>
					<path id="path70" inkscape:connector-curvature="0" fill="#BCD658" d="M40.436,2.524c-0.122,0.012-0.238,0.031-0.339,0.072
						C40.282,2.575,40.375,2.551,40.436,2.524z"/>
					<path id="path72" inkscape:connector-curvature="0" fill="#BCD658" d="M74.299,16.717l-0.284-0.359
						c-0.009,0.004-0.019,0.005-0.025,0.015L74.299,16.717z"/>
					<path id="path74" inkscape:connector-curvature="0" fill="#BCD658" d="M76.075,19.305c-0.102-0.147-0.241-0.343-0.32-0.475
						C75.855,19.037,75.958,19.183,76.075,19.305z"/>
					<path id="path76" inkscape:connector-curvature="0" fill="#BCD658" d="M59.956,5.73l-0.047-0.017
						C59.556,5.626,59.771,5.692,59.956,5.73z"/>
					<polygon id="polygon78" fill="#BCD658" points="72.633,15.27 72.79,15.389 72.752,15.34 					"/>
					<path id="path80" inkscape:connector-curvature="0" fill="#BCD658" d="M77.139,20.959c-0.05-0.07-0.099-0.133-0.146-0.175
						l0.127,0.226C77.123,20.979,77.13,20.965,77.139,20.959z"/>
					<path id="path82" inkscape:connector-curvature="0" fill="#BCD658" d="M65.837,9.263c0.137,0.026,0.198,0.023,0.219,0.003
						C65.926,9.183,65.833,9.15,65.837,9.263z"/>
				</g>
			</g>
		</g>
	</g>
</g>
<polygon id="polygon94" fill="#B3D143" points="10.908,45.742 8.719,53.024 -6.255,54.646 -2.63,47.328 "/>
<polygon id="polygon96" fill="#B3D143" points="13.073,38.843 11.268,44.927 -2.291,46.515 0.617,40.403 "/>
<polygon id="polygon98" fill="#B3D143" points="14.716,33.055 13.08,38.139 0.893,39.692 3.295,34.59 "/>
<polygon id="polygon100" fill="#B3D143" points="16.236,28.079 14.993,32.412 3.576,33.946 5.751,29.588 "/>
<polygon id="polygon102" fill="#B3D143" points="25.963,43.528 25.199,50.731 10.498,52.703 12.701,45.432 "/>
<polygon id="polygon104" fill="#B3D143" points="26.779,36.705 26.161,42.724 12.88,44.625 14.595,38.557 "/>
<polygon id="polygon106" fill="#B3D143" points="27.29,30.987 26.65,36.016 14.736,37.854 16.145,32.786 "/>
<polygon id="polygon108" fill="#B3D143" points="27.843,26.065 27.446,30.346 16.3,32.143 17.625,27.817 "/>
<polygon id="polygon110" fill="#B3D143" points="41.016,41.028 41.978,48.147 27.713,50.527 28.173,43.293 "/>
<polygon id="polygon112" fill="#B3D143" points="40.195,34.283 41.024,40.23 28.157,42.495 28.419,36.461 "/>
<polygon id="polygon114" fill="#B3D143" points="39.335,28.629 39.897,33.607 28.393,35.764 28.586,30.732 "/>
<polygon id="polygon116" fill="#B3D143" points="38.705,23.761 39.334,27.997 28.587,30.096 28.88,25.789 "/>
<polygon id="polygon118" fill="#B3D143" points="54.224,38.416 57.449,45.043 43.616,47.745 42.676,40.634 "/>
<polygon id="polygon120" fill="#B3D143" points="52.09,31.817 54.075,37.631 42.503,39.854 41.594,33.922 "/>
<polygon id="polygon122" fill="#B3D143" points="50.127,26.29 51.664,31.158 41.429,33.24 40.648,28.291 "/>
<polygon id="polygon124" fill="#B3D143" points="48.554,21.528 50.008,25.667 40.525,27.669 39.98,23.433 "/>
<path id="path126" inkscape:connector-curvature="0" fill="#B3D143" d="M30.719,8.545l-3.428-5.35l-3.429,5.35l-5.211-3.637
	l-1.112,6.256l-6.207-1.359l1.361,6.207l-6.257,1.111l3.636,5.211l-5.351,3.428l3.642,2.333l3.222-0.605
	c-0.06-0.566-0.097-1.144-0.097-1.729c0-8.651,6.765-15.666,15.108-15.666c7.062,0,12.973,5.027,14.632,11.813l4.118-0.776
	l2.799-4.008l-6.259-1.111l1.361-6.207l-6.208,1.361l-1.112-6.258L30.719,8.545z"/>
<path id="path128" inkscape:connector-curvature="0" fill="#FFFFFF" d="M13.57,26.355c0-7.63,6.104-13.815,13.636-13.815
	c6.065,0,11.201,4.018,12.971,9.566l1.054-0.197c-1.659-6.785-7.57-11.813-14.631-11.813c-8.345,0-15.109,7.015-15.109,15.666
	c0,0.585,0.037,1.16,0.097,1.729l2.021-0.38C13.594,26.858,13.57,26.61,13.57,26.355z"/>
<path id="path130" inkscape:connector-curvature="0" fill="#B3D143" d="M27.205,12.539c-7.531,0-13.636,6.186-13.636,13.815
	c0,0.255,0.023,0.503,0.038,0.755l26.568-5.003C38.407,16.556,33.271,12.539,27.205,12.539z"/>
</svg>
