<?xml version="1.0" encoding="utf-8"?>
<!-- Generator: Adobe Illustrator 15.1.0, SVG Export Plug-In . SVG Version: 6.00 Build 0)  -->
<!DOCTYPE svg PUBLIC "-//W3C//DTD SVG 1.1//EN" "http://www.w3.org/Graphics/SVG/1.1/DTD/svg11.dtd">
<svg version="1.1" id="Calque_1" xmlns="http://www.w3.org/2000/svg" xmlns:xlink="http://www.w3.org/1999/xlink" x="0px" y="0px"
	 width="4000px" height="4000px" viewBox="0 0 4000 4000" enable-background="new 0 0 4000 4000" xml:space="preserve">
<title>Plus</title>
<path fill="#FFFFFF" d="M2000,3160.948c-862.301,0-1561.334-699.033-1561.334-1561.334S1137.699,38.28,2000,38.28
	c862.302,0,1561.334,699.033,1561.334,1561.334c0,0.129,0,0.258,0,0.387C3560.056,2461.707,2861.709,3159.882,2000,3160.948z
	 M2000,231.61c-755.526,0-1368.004,612.477-1368.004,1368.004S1244.473,2967.617,2000,2967.617
	c755.377,0,1367.791-612.24,1368.004-1367.616C3367.152,844.824,2755.176,232.849,2000,231.996V231.61z"/>
<path fill="#FFFFFF" d="M1121.895,1662.252v-124.506c0-42.709,34.622-77.332,77.332-77.332H2811.6
	c42.709,0,77.332,34.623,77.332,77.332v124.506c0,42.709-34.623,77.332-77.332,77.332H1199.227
	C1156.517,1739.584,1121.895,1704.961,1121.895,1662.252z"/>
<path fill="#FFFFFF" d="M1937.748,716.481h124.506c42.709,0,77.332,34.623,77.332,77.332v1612.374
	c0,42.709-34.623,77.332-77.332,77.332h-124.506c-42.709,0-77.332-34.623-77.332-77.332V793.813
	C1860.416,751.104,1895.039,716.481,1937.748,716.481z"/>
</svg>
