<?xml version="1.0" encoding="utf-8"?>
<!-- Generator: Adobe Illustrator 15.1.0, SVG Export Plug-In . SVG Version: 6.00 Build 0)  -->
<!DOCTYPE svg PUBLIC "-//W3C//DTD SVG 1.1//EN" "http://www.w3.org/Graphics/SVG/1.1/DTD/svg11.dtd">
<svg version="1.1" id="Calque_1" xmlns="http://www.w3.org/2000/svg" xmlns:xlink="http://www.w3.org/1999/xlink" x="0px" y="0px"
	 width="4000px" height="4000px" viewBox="0 0 4000 4000" enable-background="new 0 0 4000 4000" xml:space="preserve">
<title>Search v2.5</title>
<desc>Created with Sketch.</desc>
<g>
	<g>
		<path fill="#FFFFFF" d="M2316.228,1725.698c-11.428,18.818-7.898,46.866,7.382,62.146l288.272,288.272
			c37.49,37.49,37.49,98.274,0,135.765s-98.274,37.49-135.765,0l-288.272-288.272c-15.505-15.505-43.453-18.577-62.532-7.175
			c0,0-7.063,5.247-29.241,16.06C2028.393,1965.487,1952.359,1984,1872,1984c-282.77,0-512-229.23-512-512
			c0-282.771,229.23-512,512-512c282.771,0,512,229.229,512,512c0,80.644-18.644,156.933-51.857,224.791
			C2321.415,1718.71,2316.228,1725.698,2316.228,1725.698z M1872,1792c176.731,0,320-143.27,320-320c0-176.731-143.269-320-320-320
			c-176.73,0-320,143.269-320,320C1552,1648.731,1695.269,1792,1872,1792z"/>
	</g>
</g>
</svg>
