<?xml version="1.0" encoding="utf-8"?><!DOCTYPE svg PUBLIC "-//W3C//DTD SVG 1.1//EN" "http://www.w3.org/Graphics/SVG/1.1/DTD/svg11.dtd"><svg xmlns="http://www.w3.org/2000/svg" xmlns:xlink="http://www.w3.org/1999/xlink"><symbol viewBox="-0.67 -0.77 67 67" overflow="visible" id="coop" xmlns="http://www.w3.org/2000/svg"><ellipse fill="#FFF" cx="33.002" cy="32.789" rx="31.128" ry="31.378"/><g fill="#6E7072"><path d="M54.136 8.706a.117.117 0 0 0 .071-.024c-.041-.002-.062.008-.071.024zM40.307 1.051l.189.014c-.12-.025-.169-.025-.189-.014zM60.047 16.069c-.012-.008-.015-.006-.025-.011l.33.576-.305-.565zM8.771 10.52l.146-.162c-.067.071-.116.114-.146.162zM26.418.732c-.057.04-.159.072-.259.104.13-.024.231-.052.259-.104zM60.998 21.055l-.011-.274c-.035.02-.038.121.011.274zM63.563 29.883c.006-.008.012-.011.02-.026-.01-.013-.016.002-.02.026zM63.396 26.221l-.096-.248c.026.108.055.247.096.248zM63.25 25.855l.05.117c-.018-.067-.034-.122-.05-.117zM65.293 34.318c.014-.281-.047-.523-.102-.776l.102.776zM.893 39.809l-.051-.053c.024.055.039.062.051.053zM64.479 33.939l.026-.193a.724.724 0 0 0-.026.193zM58.582 16.869c-.214-.176-.409-.688-.486-.634.167.223.311.596.486.634zM6.162 44.728l.072.153a1.308 1.308 0 0 0-.072-.153zM64.479 33.939l-.031.223c.019-.018.033-.042.05-.064a.647.647 0 0 1-.019-.159zM21.354 63.791l-.009-.004-.068-.008zM22.955 64.513l-.365-.088c.185.072.289.089.365.088zM65.191 33.542l-.067-.44c.009.157.036.301.067.44zM41.555 64.812l-.163.057a.827.827 0 0 0 .163-.057zM27.715.548l.151-.004c.012-.025 0-.038-.151.004zM17.144 7.177l-.003.002.001.002zM17.621 6.747c-.183.081-.387.291-.478.43.169-.105.315-.223.478-.43zM15.986 7.887l.067-.033a.418.418 0 0 0-.067.033zM27.674 3.214l-.002-.01-.005.01zM25.237 3.783a.775.775 0 0 0-.177.005.601.601 0 0 0 .177-.005zM11.435 12.16l-.001-.004-.008.011z"/><path d="M3.978 33.61c-.144-2.306-.031-5.349.572-7.584-.072-.532.102-1.251.278-1.971h.267l.109-.609c.15-.213-.099.464.128.075l-.078-.27c.096-.021.588-1.46.41-.434.268-.742.564-1.474.889-2.193.23-.471-.07-.371.244-.866.119-.072-.047.21.057.208.946-1.457.484-2.03 1.459-3.368l-.048.135c.095-.271.395-.711.371-.735-.335.03-.048.323-.45.659-.158-.155.246-.589.09-.654.286-.275.309-.537.5-.819.441-.394.876-1.105 1.282-1.336.127-.259.16-.644.56-1.108.417-.214.051.182.495-.216l-.028-.155c.345-.345.319-.264.35-.21.365-.369.172-.437.693-.839l-.171.342c.308-.373.459-.5.957-.948.039.063-.16.243-.318.362.393-.111.396-.487.56-.602-.081-.006-.439.295-.355.048.261-.208.416-.607.695-.651l-.194.332c.459-.533.176-.367.822-.844-.027.035.009.045.012.077.291-.448.904-.746 1.517-1.173l-.095.111c.216-.214.292-.397.43-.485-.393.186-.319.089-.42.013.585-.154.575-.703 1.436-1.101.025.07-.119.26-.375.336-.147.357-.085.521-.487.923.255-.243.586-.488.562-.367l-.019-.226c.173-.123.322-.2.458-.286.011-.154-.475.057-.1-.276.44-.353.357.015.385-.107.62-.457.16-.354.838-.66-.056.05-.165.151-.229.166.498-.195 1.127-.66 1.375-.517-.046.083-.026.153-.211.229l-.01-.036c-.429.423.405-.268.345.01-.094-.095.577-.405.891-.519l-.158-.088c.826-.864.065.281 1.038-.214.6-.362-.257.064.094-.197.445-.155.652-.105 1.271-.406.199-.013.591-.066.674.076.368-.204 1.211-.32 1.391-.536-.719.072-.622.364-1.47.429l.168-.229c.547-.175 1.229-.471 1.629-.517-.085-.009-.132-.039-.092-.085.778-.274.973-.488 1.772-.612.134.123-.332.193-.661.286.53 0 .527-.12 1.324-.226.065.119-.531.093-.595.239l.859-.211c-.002.008.003.016.005.025.09-.23.667-.103 1.193-.235 1.27-.163 1.439-.455 2.148-.678.197.045.257.096.178.155-.324-.075-.263-.004-.369.059.437-.053.963.154.725.252.685-.088-.253-.103.165-.186.315-.009.631-.015.946-.011-.112-.108-.45-.127.043-.217.416-.038.617-.007 1.161.009-.081.052.165.168-.241.154.26.043.667.07.83-.032-.591-.131.977-.04.545-.232l.588.144c-.136-.013-.156.054-.354.02.156.176.489-.005.698-.003.207.048.745.131.782.198.192-.026.643.08.715.173.281.007.038-.104.127-.146l.937.173c.033.1.063.366-.082.372.366-.015.176-.243.706-.129-.338.107.668.288.186.398.273.189 1.12.387 1.595.476.326-.057-.481-.214-.416-.347 1.324.307 1.524-.034 2.464.354l-.235-.126c.624.136.552.124.94.141-.225.108.504.693 1.455 1.076.118-.047-.459-.391-.25-.454l.645.255c.04.033-.042.029-.133.015.594.198.938.701 1.189.595l.433.522-.166-.216c.116-.038.741.262.881.307.667.26.848.468 1.116.766-.064-.127-.238-.436.25-.162-.155.237.926.728.825.846.188.126.46.428.552.345l-.136.125c.19-.179.848.313 1.369.667-.323.179.558.411.568.832.244-.107.899.656 1.111.586.364.321.179.449.217.585l.224.09c.101.246.729.892 1.035 1.337l.489.228.054.201c.092.024.389.316.276.072l.17.211c.187-.131.294.249.715.609.05.122-.013.129-.109.056.167.213.005.195.038.356-.073-.191.92.521.549-.121.043-.098.358.205.488.444l-.062.251.36.135c.274.325.269.548.442.842-.209-.282-.754-.412-.246.317-.286-.372-.509-.496-.686-.664.102.153.139.238-.098.058.454.523.234.115.646.663-.17.069-.109.259.16.79l-.131-.444a.19.19 0 0 1 .087.044c-.076-.152-.078-.208-.041-.277.07.114.627.543.59.703-.125-.744.819.92.731.456.084.043.343.457.286.546-.404-.438.034.481-.125.461.15.163-.102-.462.099-.241.179.295.201.571.238.768l-.097-.111.173.506c.121.037-.102-.525.167-.113.025.132.282.552.211.569-.214-.154-.287.07-.497-.286.169.296.649 1.277.615.807l.167.375c-.038-.264-.22-.983.151-.24l-.036.008.359.474.014.268c.04-.025.115.042.192.244-.029.072.026.268-.047.279.24.573.299.497.38.552.135.323.145.457-.013.341.143.454.425 1.235.427 1.572.257.585-.001-.136.222.185-.136.613.438 2.052.659 3.071.217-.329.087.271.363.417-.121-.206-.051 1.01-.274.125l.118.542c-.089.395-.26-.883-.372-.288.107.603.461.966.44 1.705-.218-.224.12.552-.113.392-.081-.144-.081-.346-.121-.548l-.023.129c.07 1.347.27.366.461 1.065.077.828-.113.662-.203.714-.034.13.014.543.07.759-.136-.499.089-.936.221-.71-.202.373.018 1.23.104 1.46.219-1.197.006-.822.202-1.958-.085-.151-.269-.112-.247-.787.136.412.108-.039.13-.162-.102.141-.09-.461-.164-.66.071-.198.31.375.278-.315l-.284-.095c.004-.27.213.088.07-.47.18.287.208-.125.349.644.112-.955-.317-1.401-.548-2.084.03.069.067.07.099.138-.1-.138-.144-.413-.204-.617-.039-.478.197.342.242.208l-.166-.754c.005-.017.009-.021.015-.023-.077-.191-.151-.371-.102-.457.139.204.25.272.351.41l-.372-.751c.112.065-.021-.689.19-.144-.116-.387-.229-.774-.359-1.156l.146-.15c-.113-.27-.15-.267-.073.074-.066-.419-.87-1.644-.464-1.555-.468-.843-.529-1.188-1.074-2.204.514.744-.222-1.015.235-.188-.161-.535-.383-.559-.604-.933-.109-.399.13-.318.387.052l-.305-.43.036-.007-.297-.355c-.138-.469.117-.177-.097-.625l-.193-.017-.08-.339c-.005.146-.171-.096-.366-.398l.035-.011-.247-.361c.307.321-.176-.359.023-.249-.192-.321-.19-.333-.586-.882l-.028.16c-.562-.682.121-.124-.272-.72l-.079.108c-.409-.972-1.11-1.346-1.477-2.017.295.321.343.145.308.16-.435-.491-1.108-1.326-1.682-1.719-.033-.305-.026-.392-.457-.951-.362-.358-.435-.393-.626-.436-.299-.399-1.055-.942-.986-1.056-.154.002-.315-.312-.583-.418l-.009-.079-.05.125c-.484-.785-1.233-.812-1.792-1.528l.144.062-.329-.18c-.015-.08.127-.018.184-.066a34.322 34.322 0 0 0-1.414-1.002l.231.269c-.309-.193-.583-.217-.893-.505.688.204-.483-.309-.509-.486l.346.148c-.443-.251-.443-.251-.472-.119-.593-.288-.271-.438-.871-.611l.376.214c.073.128-.244.061-.498-.074-.051-.049-.204-.195-.003-.105-.477-.205-1.144-.61-1.374-.658-.236-.156-.115-.199.037-.164-1.054-.366-.444-.24-1.512-.577l.046-.06-.386-.066-.453-.34.149.158c-.345-.12-.575-.153-.964-.333l.198-.043c-.991-.285-1.078-.558-2.065-.691-.06-.037.098-.03.178-.024-.923-.079-.616-.371-1.56-.391.063-.021-.024-.089.018-.11l-.425-.022.063-.134-.379.135-.222-.197-.167.039c-.388-.359-1.05-.266-1.628-.554l.079.196c-1.566.145-3.503-.582-5.39-.362l.03-.145-.766.196c-.42-.097.243-.132.111-.201-.824.12-.335.226-1.289.335-.497-.052.161-.126.389-.188-.896.127-2.201.371-2.841.397-.012.021-.046.053-.013.056-.581.157-1.367.243-2.011.399.001-.068.16-.114.317-.163-.233.042-.563.066-.745.184l.213-.181c-.504.09-1.422.457-1.571.348.075.037.08.148-.343.268-.301-.147-1.115.444-1.813.575.062-.078.546-.262.408-.215-.354.061-.62.269-.883.445l.057-.117c-.499.232-.99.478-1.473.738-.319-.113-1.39.684-1.357.494-.528.255.483-.133-.169.222-.221.002-.573.349-.612.206l.062-.052-.453.252.222-.279c-.384.235-.596.528-.563.63-.409.138-.889.505-1.119.496l.114-.112c-.979.668-1.878.752-2.498 1.509-.068.025-.083-.008.037-.094l-.596.438.074-.192c-.293.291-.578.589-.858.89l-.033-.065c-.646.49-1.568 1.36-2.286 2.113l.087-.133c-.724.882-.819.735-1.327 1.4a.206.206 0 0 1 .037-.085l-.494.562.057-.17c-.251.514-1.176 1.09-.858.908-.146.288-.414.764-.396.893-.485.654-.197.1-.545.472-.354.475-.312.63-.813 1.257l-.051-.053-.544.992.053-.15c-.316.8-.737.803-.786 1.542-.23.281-.496.905-.612.809a55.183 55.183 0 0 0-1.045 2.749c-.281.068-.077.211-.426.759l.135.001c-.509 1.384-1.309 2.936-1.606 4.565l-.134.018.067.352c-.427 1.722-.734 4.01-.77 5.426.047.468.183 1.17.152 1.902l-.019-.077.35 4c-.065-.078-.084.064-.139-.086.183.31.12.81.168 1.105l.038-.36c.181.372.163.95.113 1.165l.257.589c-.003.043-.009.109-.027.122l.089.094-.093.362c.07.145.304.942.532 1.149-.038.071.071.647-.076.219.188.739.395 1.476.636 2.201l-.062-.357c.109-.082.402.539.477.889-.26-.399-.184.026-.201.246.174.269.01-.292.133-.163.212.339.563 1.082.593 1.294l-.138-.195c.252.468.142.783.374 1.255.287.385.362.734.514.552.339.587-.017.301.061.507.236.239.625 1.104.593 1.264.451.168.834 1.638 1.147 1.606l.178.551c.069-.024.266-.023.546.331.175.395.018.383.033.531l.385.075c1.19 2.175 3.547 4.442 5.486 6.321.97.726 2.258 1.531 3.426 2.307l-.15-.054c.378.271.765.534 1.155.792-.27-.211-.542-.413-.805-.631.273.138.506.211.755.365 1.25.878 3.042 1.927 4.865 2.467 1.25.131.669.545 1.857.699-.104-.004-.151.026-.247.027 1.238.282 1.919.407 3.185.503-.206.274.803.159.662.292l.125-.103c.259.134.908.262.8.336l.573-.069.029.134c.73.127 2.314.169 2.688.437 1.843-.061 4.727-.082 7.012-.407.304-.154.963-.274 1.474-.39l.579.032c.514-.159 1.016-.48 1.518-.519.001.018-.016.035-.046.053.514-.169 1.032-.241 1.47-.53.566-.171 1.134-.297 1.011-.101-.028-.249 1.193-.406 1.194-.412-.01-.017 1.826-.615 4.436-2.094 2.604-1.466 5.926-3.936 8.687-7.259 2.791-3.29 4.936-7.395 6.006-11.162 1.104-3.77 1.199-7.11.936-8.937-.114-.252-.172-.928-.329-.674-.038-.517.184-.753.061-.855-.092.702-.32-.216-.483.465l-.025-.436c-.088-.091.093.594-.066.484l.231.128c-.039.354-.103.546-.184.668.079.334.385.566.188 1.354l.005-.221c-.048.648-.185.384-.234.515l.015-.142-.168.53c.12-.402-.014-1.095-.029-.739-.133.758.073-.193.052.382-.02.357-.136.245-.205.223l-.063.636c-.104-.036.054-.419-.087-.175l.012.811c-.287.108 0 .888-.321 1.206.037-.579-.098.034-.171-.071-.078.462-.167.922-.265 1.38-.064.122-.004-.378-.036-.167-.127.241-.032.437-.066.575-.096.103-.258 1.017-.425.932-.381.876.119.45-.246 1.268-.139.077.188-.68-.038-.338l-.247.883c-.023-.096-.108-.225.017-.543-.93 2.305-2.005 3.253-2.92 5.257-.266.208.032-.238.062-.473-.623 1.484-1.371 1.791-2.114 2.901l.075.082c-1.346 1.339-2.657 3.176-4.31 4.512l.235-.117c-.137.278-.48.603-.709.869-.078-.008.039-.335-.397.096.121-.053.346-.19.321-.101-.778.492-1.903 1.341-3.215 2.168-1.304.837-2.804 1.636-4.177 2.186-3.613 1.756-7.976 2.475-11.882 2.531.598-.016.35.255-.106.198-1.224-.457-2.152.021-3.382-.425-2.299-.123-4.184-.973-6.286-1.339l.004-.135c-.278-.161-.39-.103-.705-.212l.021-.03c-.716-.319-1.638-.581-2.02-.835l-.087.119c-.429-.189-.172-.202-.638-.343l.045-.059-.56-.133c.164-.194-1.155-.645-1.413-.95-.542-.269-1.572-.805-2.282-1.396-.066-.2-.961-.882-1.462-1.397-1.092-.863-2.556-2.234-3.651-3.636l-.105.13-.305-.353c.032-.018.007-.079.065-.034-.081-.395-.709-.808-.835-1.181.017.278.176.274.332.488.17.351-.179.158-.424-.305l.035-.014-.276-.235c.08-.106-.059-.4.024-.508-.888-1.233-1.616-2.02-2.292-3.455.198.083-.533-1.004-.169-.826-.481-.818-.115.228-.457-.093-.11-.241-.285-.472-.219-.553.104.09.052-.259.159-.069l-.266-.575c-.005-.064.079.052.12.11-.625-1.143-.662-2.188-1.123-3.25-.118-.057.098.447-.013.393-.5-1.074-.129-1.032-.506-2.059l.17.192c-.158-.321-.301-.45-.314-1.036.122-.126.21.456.339.711-.085-.384-.302-1.357-.377-1.035-.132-.459-.026-.652-.03-.908-.037-.004-.024.451-.136.187-.021-.65-.145-1.639-.189-2.427.036.004.087-.055.109.013-.227-.62.094-.573.023-1.434z"/><path d="M27.998 3.182l-.324.033c.006.032-.002.071-.142.134l.466-.167zM14.134 9.434c-.024.034-.048.068-.065.104.057-.055.067-.084.065-.104zM11.583 12.161c.163-.212-.032-.071-.147 0 .017.024.046.043.147 0zM36.714 2.602c-.058.007-.096.022-.09.054.08-.018.099-.035.09-.054zM57.081 14.641l-.041-.09c.002.02.018.053.041.09zM56.432 13.436a1.61 1.61 0 0 0-.191-.2.952.952 0 0 0 .191.2zM30.823 2.505a.72.72 0 0 0-.251.065.661.661 0 0 0 .251-.065zM56.034 13.042l-.208-.271c-.009.005-.017.007-.025.015l.233.256zM57.316 14.998c-.073-.11-.179-.256-.235-.356.067.159.145.268.235.356zM45.366 4.834l-.035-.012c-.269-.05-.105-.007.035.012zM54.864 12.096l-.027-.037-.096-.045zM58.096 16.235a.595.595 0 0 0-.114-.126l.091.17c.005-.026.013-.038.023-.044zM49.718 7.514c.109.008.161-.002.179-.023-.096-.062-.169-.081-.179.023z"/></g><circle fill="#6E7072" cx="32.689" cy="13.137" r="5.63"/><circle fill="#6E7072" cx="15.334" cy="24.398" r="5.63"/><circle fill="#6E7072" cx="50.229" cy="24.398" r="5.631"/><path fill="#6E7072" d="M13.544 31.575S1.215 48.807 32.245 58.509c0 0-19.994-16.367-.522-28.482 0 0-3.161-4.396-9.119-3.721 0 .001-2.111 5.809-9.06 5.269zM52.104 31.575s12.329 17.232-18.702 26.934c0 0 19.994-16.367.522-28.482 0 0 3.162-4.396 9.12-3.721.001.001 2.111 5.809 9.06 5.269zM27.06 19.021s-2.679 1.833-3.746 5.377c0 0 4.486-1.266 9.417 4.189 0 0 3.945-5.267 9.238-3.754 0 0-.757-3.083-3.649-5.812 0 0-3.47 1.946-5.589 1.946s-5.671-1.946-5.671-1.946z"/><path fill="#6E7072" d="M37.765 40.995c-.187.215-.463.196-.896.473a.25.25 0 0 0 .04-.038c.133-.149-.513-.056-.831.261-.256.272-.624.373-1.017.422-.396.053-.812.059-1.188.163-.187.05-.395.056-.622.085a6.487 6.487 0 0 1-1.783.117 13.245 13.245 0 0 1-1.867-.252c-.35-.077-.622-.279-.875-.442-.103-.046-.205-.097-.31-.134-.052-.021-.104-.039-.152-.06-.047-.023-.09-.048-.13-.071a1.545 1.545 0 0 1-.322-.258c-.09-.096-.177-.184-.238-.294.083.11.171.183.256.271.042.043.084.088.136.129l.164.124c.035.022.054.027.059.021.024-.028-.116-.232-.18-.311-.024-.053-.17-.009-.198-.066a.528.528 0 0 1-.115-.133 3.863 3.863 0 0 1-.087-.17c-.021-.055-.1.023-.109-.004a.482.482 0 0 1-.059-.115.78.78 0 0 1-.023-.123c-.011-.076-.022-.141-.066-.176-.03-.03-.062-.056-.09-.084-.024-.028-.051-.056-.076-.083-.026-.036-.055-.073-.074-.117-.006-.03-.01-.063-.015-.096a4.563 4.563 0 0 1-.044-.317l.035-.006a.157.157 0 0 0-.042-.118l-.001-.036.001-.004c.005-.004.007-.01.007-.018l-.011-.005a2.444 2.444 0 0 1 .004-.227l.009.001a.529.529 0 0 0 .148.354c-.018-.014-.029-.014-.036-.007-.008.011-.011.029-.002.06l.068.027c-.006-.061-.008-.119-.024-.173a.266.266 0 0 0-.09-.149s.012-.054.021-.081c-.019-.033-.054-.026-.086-.03v-.08c.032.026.07.077.101.122l.063.079c.067.309.211.581.382.816-.005.031-.017.059.012.074.03.01.053.02.073.033l.079.1c.007.014.016.025.024.039l-.006-.021c.07.064.14.131.209.199a.372.372 0 0 0 .04.045c.043.055.089.113.156.097.014.012.029.021.041.03l-.012.003.02.003c.058.045.125.074.189.11.025.042.054.092.088.13-.034-.038-.062-.088-.088-.13.062.032.123.069.188.101.066.026.133.055.202.083.441.17.888.271 1.345.34.459.064.93.093 1.43.069a9.126 9.126 0 0 0 1.563-.218c.502-.112.984-.174 1.463-.271.479-.096.957-.224 1.427-.473.365-.182 1.084-.311 1.447-.406.53.034.425.561.407.596a.804.804 0 0 1-.132.22m-9.312.175c.007.006.017.008.029.006.04 0 .095-.019.146-.029a.28.28 0 0 0 .231.057c-.06-.084-.143-.076-.231-.057-.025-.023-.044-.051-.045-.084.001.033.02.061.045.084-.051.011-.105.029-.146.029-.012.002-.022 0-.029-.006m-.114-.092c.029-.017.048-.015.062-.003-.014-.012-.033-.014-.062.003m-.482-.484c.029.043.065.077.114.07a9.031 9.031 0 0 0-.179-.166c-.004-.004-.005-.008-.007-.012v.001c.003.01.002.018-.003.022-.006.008-.019.008-.032.008-.02-.006-.041-.006-.061-.006.01 0 .039.006.061.006a.37.37 0 0 1 .073.029.498.498 0 0 0 .034.048m-.772-.885l-.004.037h.004l.012-.037h-.012zm9.783 1.758a.332.332 0 0 1-.055.033c.019-.01.036-.022.055-.033m-9.037-.915c-.002 0-.003-.001-.007-.005a.4.4 0 0 1-.03-.049.647.647 0 0 0 .037.054m-.615-.881l-.016-.015c.005.007.01.011.016.015M30.087 36.987a.2.2 0 0 1-.052.042c-.049.026-.049-.035-.119.052-.002.003-.095-.055-.097-.052.026-.045.05.011-.006.062-.041-.007-.109.014-.158.075-.021.026-.092-.067-.104-.027-.018.062-.094-.021-.122.015a.326.326 0 0 1-.201.108c-.118.026-.252.032-.347.112-.045.041-.108.052-.168.085-.143.12-.338.236-.493.306-.151.069-.241.211-.368.328-.033.029-.099.059-.099.059-.048.008.01.273-.035.285-.01.006-.069-.114-.078-.105-.013.016-.153.087-.16.107-.009.02.035.166.024.18 0 .002-.002.002-.004.003-.003.002-.003.005-.005.007-.04.049.083.15.028.18.042-.047-.089-.146-.038-.191l.001-.004c.026-.031-.104-.037-.144-.023-.002 0-.003.001-.003.002-.005.005.003.02.011.035.008.014.015.027.01.033-.001.002-.002.002-.003.002h-.002c-.019.023.122.102.083.117-.003 0-.004 0-.004.002-.004.004.008.014.021.021l.022.02-.002.001c-.035.022-.121.014-.139.034-.002.002-.004.006-.003.012a.519.519 0 0 0 .007.07c0 .012 0 .025-.008.033-.009.007-.018.012-.028.018-.021-.018-.049-.028-.08-.043 0 .015.014.037.014.051 0-.014-.014-.036-.014-.051.031.015.059.025.08.043a.377.377 0 0 0-.111.082l-.011-.01.006.012a4.431 4.431 0 0 0-.066.068l-.006-.002c.018-.037.021-.074-.012-.126.012.017.028.019.037.007l.004-.004-.034-.027c-.009.008-.02.016-.026.024-.02.022-.025.051.009.082l-.032.019c.008.014.034.02.055.025-.003.008-.008.014-.012.023a.273.273 0 0 1-.074-.091c.015-.054.029-.104.048-.155.016-.049.033-.098.055-.144.014 0 .028.003.032-.003.002-.002.002-.004.002-.008a.089.089 0 0 1-.017-.034l.017-.04.016-.012-.012.002.046-.094.018-.016c.01-.006.019-.01.025-.019.009-.01.01-.021-.003-.042l.009-.017.003.009-.001-.011.039-.069c.026-.045.058-.088.087-.13.023-.034.048-.064.072-.095.191-.234.33-.655.582-.837.156-.114.302-.293.45-.408.157-.124.218-.225.426-.313.162-.067.313-.105.521-.167.119-.11.389-.136.535-.156.717.226.31.551.31.569-.017.101-.178.071-.204.104m-2.925 2.036c.005.009.013.026.021.038-.004-.014-.012-.025-.021-.038m.085-.139a.031.031 0 0 0-.005.017.147.147 0 0 1 .011.056l.015-.046.019-.041c-.017.004-.031.006-.04.014m.402-.592l.06-.014c.013-.025-.006-.045-.016-.066a.524.524 0 0 0-.098.09c-.003.002-.006.004-.007.008a.37.37 0 0 0-.065.119c.006-.029-.014-.035-.046-.009l.005.056c.037-.023.021-.172.053-.2.008-.009.016-.017.022-.026.02-.023.084.076.092.042m.042-.086l.002.006.047-.032v-.003l-.049.029m-.508.47c.014-.002.022.006.029.017a.248.248 0 0 0 .019.026c-.006-.005-.01-.017-.019-.026-.004-.011-.008-.022-.007-.032-.008.005-.017.009-.022.015m.224-.301c.011.028.022.055.027.074.004.006.004.009.001.012.003-.003.003-.006-.001-.012-.004-.019-.016-.045-.027-.074m-.014.11l.001.005-.001-.005m.018-.024h0m-.02.022c0 .002 0 .002.002.002-.002 0-.002 0-.002-.002m-.008-.022c.005-.004.014-.003.026 0h.002-.002c-.013-.003-.021-.003-.026 0m-.162.184c.002-.002.004-.002.007-.006.009-.012.011-.023-.005-.044l-.036.077c.007-.005.011-.012.018-.014l.001-.002v.004c.005-.005.01-.007.015-.015m.186-.27c.008 0 .014-.004.019-.012.013-.015.015-.04.007-.073-.015 0-.023.001-.03.007-.012.018-.007.047.004.078M24.512 46.382a.24.24 0 0 0-.079.014c-.034 0-.039-.028-.052-.058.043.016.087.033.131.044M24.673 46.445a.236.236 0 0 0-.038-.022l.022.007.016.015zM24.851 46.532a.308.308 0 0 1-.113-.047.276.276 0 0 1 .113.047M24.737 46.485a.217.217 0 0 0-.077.007c.007-.005.013-.009.018-.015.008-.009.008-.02-.002-.031l-.003-.001.064.04M24.66 46.492c-.018.009-.043.015-.056.02a.288.288 0 0 1 .056-.02m-.056.019c0 .001 0 .001 0 0 0 .001 0 .001 0 0M25.366 47.247c-.007.007-.024.007-.057-.007a8.553 8.553 0 0 1-.62-.273l-.486-.333a.61.61 0 0 0-.149-.051c.07.01.141.02.218.035.104.011.164.182.303.262.007.007.014.001.021-.01.004-.004.009-.008.011-.012.005-.005.007-.01.011-.016.015-.015.032-.026.05-.008.098.067.172.153.277.183.038.04.154-.054.192-.015.08.051.253.213.229.245M23.78 46.176c-.023.009-.045.02-.068.027-.034-.02-.045-.039-.034-.049.003-.008.014-.012.028-.012a.68.68 0 0 1-.359-.108h.003a.032.032 0 0 1 .012-.014c.003-.005.006-.011.01-.014a.064.064 0 0 1 .053-.026l.048.064c.133-.022.218.054.307.132M23.347 46.035l-.006.007-.061-.046.004-.001.063.04M36.827 47.159c-.205.23-.481.18-.951.436l.051-.039c.115-.133-.519-.084-.85.205-.275.253-.646.325-1.04.348-.392.025-.805.002-1.183.082-.188.037-.389.035-.619.053-.588.101-1.162.094-1.741.062-.579-.033-1.161-.104-1.786-.15-.331-.029-.604-.174-.871-.264-.197-.049-.419-.031-.581-.059a2.79 2.79 0 0 1-.665-.219c.229.066.393.131.651.195.032.006.047.006.056 0 .025-.032-.171-.17-.256-.215-.046-.035-.147.07-.19.037-.108-.024-.195-.086-.303-.145-.015-.014-.026-.008-.038.006l-.018.022c-.004.01-.01.017-.015.023s-.007.007-.013.003c-.151-.061-.234-.225-.339-.22a7.241 7.241 0 0 1-.22-.005.463.463 0 0 1-.129-.027c-.023-.018-.051-.033-.076-.05-.182-.112-.393-.243-.589-.356l.006-.008c-.021-.012-.045-.021-.068-.033.068-.035.253-.051.253-.051l.228.072.224.062c.151.035.296.076.442.104.016.027.026.057.06.05a.185.185 0 0 1 .078-.022l.128.025c.013.004.027.012.042.017v.002c.015.013.015.024.004.033-.001.005-.006.008-.012.011a.577.577 0 0 0-.055.029c.012-.008.036-.016.055-.029a.224.224 0 0 1 .076-.014.863.863 0 0 1-.068-.032l-.019-.013c.098.016.193.035.292.048l.06.021c.068.029.134.059.188.012a.45.45 0 0 0 .053.008l-.012.008.021-.006.223.029.443.043c.968.079 1.86.154 2.867.124a12.017 12.017 0 0 0 1.574-.169c.508-.088.991-.117 1.477-.18.482-.062.966-.158 1.451-.371.374-.154 1.094-.229 1.458-.302.262.036.353.182.382.323a.53.53 0 0 1-.018.297.843.843 0 0 1-.118.189m-9.249.154c.066.029.16.026.243-.018-.083-.059-.166-.027-.243.018m-.128.074c.04-.02.083-.048.128-.074-.045.026-.088.055-.128.074M27.436 47.394l.011-.005-.011.005m-.153-.046l-.001.004.001-.004m0 0zm-.517-.203a3.26 3.26 0 0 1-.247-.039l.057.022.006.003h-.008a.572.572 0 0 0 .053.02c.048.019.096.029.139-.006m-1.044.078v-.002.002zM25.702 47.24l.002-.002-.002.002m.069-.098c0 .001 0 .001 0 0 0 .001 0 .001 0 0m-.144-.008c.041.005.104-.003.146.003-.042-.006-.105.002-.146-.003m-.16-.19c-.011.014.002.033.042.048l.064-.038c-.102-.061-.2-.127-.329-.086l-.057-.059a.074.074 0 0 0-.039.022c-.012.011-.019.03-.029.044a.72.72 0 0 0 .375.056c-.014.003-.021.009-.027.013m10.409.65c-.016.008-.033.02-.055.03.018-.01.036-.022.055-.03m-10.364-.665c-.007 0-.013 0-.018.002.005-.002.011-.002.018-.002"/><path fill="#6E7072" d="M26.692 47.163a.276.276 0 0 1-.066-.012c-.016-.008-.03-.012-.045-.02a.27.27 0 0 1 .111.032"/><path fill="#6E7072" d="M26.766 47.145c-.043.035-.091.025-.14.006a.285.285 0 0 0 .066.012.271.271 0 0 0-.111-.031l-.006-.003a.491.491 0 0 0-.057-.022c.082.015.164.028.248.038M31.553 45.485a.161.161 0 0 0-.029.025l-.013.016c-.018.016-.027-.011-.044-.03l.086-.011zM31.63 45.475l.029.008-.013-.011-.016.003zM31.782 45.498a.134.134 0 0 1-.077-.001c.021-.011.044-.011.077.001M31.705 45.497a.103.103 0 0 0-.036.027c-.004.002-.004.004-.006.007.011-.018.013-.035-.004-.047v-.001a.31.31 0 0 0 .046.014M31.639 45.571v-.002.002m0-.002c.008-.014.015-.027.024-.038-.007.014-.02.028-.024.038M32.246 45.989c-.004.005-.016.01-.028.01-.162-.006-.27-.027-.417-.043-.12-.038-.233-.086-.354-.121-.033-.003-.063.008-.098.016l.13-.057c.061-.035.139.104.238.125 0 .002.002.002.003 0a.112.112 0 0 0 .008-.035c.004-.016.007-.033.013-.039.005-.004.008-.004.014 0 .072.027.136.074.202.072.011.007.021 0 .031-.013l.022-.028.021-.029c.011-.012.021-.019.031-.012.061.022.21.124.184.154M31.059 45.643c-.034-.006-.041-.027-.022-.049a.287.287 0 0 1-.224.055c.006-.025.006-.058.021-.074l.006-.006.044.037c.001 0 .002 0 .002-.004.069-.076.136-.045.206-.014l-.033.055zM30.809 45.659a.574.574 0 0 0-.044-.017l.001-.003c.017.004.031.008.047.01l-.004.01zM39.116 44.743c-.11.125-.273.096-.507.294.001-.004.005-.007.007-.011.062-.069.004-.107-.095-.102a.537.537 0 0 0-.39.244c-.023.041-.051.074-.076.105-.305.346-.832.162-1.227.335-.109.046-.231.05-.368.08-.681.263-1.361.193-2.103.327-.197.025-.383-.052-.556-.089-.125-.003-.248.066-.349.079a1.14 1.14 0 0 1-.428-.042c.147.003.256.024.416.021.016-.002.024-.005.029-.01.025-.029-.129-.126-.191-.146-.01-.005-.019-.001-.027.011-.008.009-.016.02-.023.031l-.021.032c-.01.012-.02.015-.028.012-.065.005-.131-.039-.204-.062-.008-.003-.011-.003-.015 0-.006.009-.008.024-.011.042-.001.016-.003.031-.007.035 0 .002-.001.002-.003.002-.1-.016-.185-.149-.243-.113l-.126.063a.262.262 0 0 1-.079.013 3.376 3.376 0 0 0-.474-.164l.002-.01c-.017 0-.033-.004-.047-.006.006-.015.019-.029.034-.047a1.02 1.02 0 0 1 .093-.091 5.19 5.19 0 0 0 .566-.056c.016.02.029.044.045.029a.072.072 0 0 1 .019-.025l.021-.02.079-.014.028.006-.014-.008.18-.035.038.005c.038.009.075.018.099-.011.005-.006.012-.014.015-.024l.031-.007-.004.01.01-.012.137-.029.268-.062c.584-.141 1.128-.211 1.733-.356.326-.085.637-.183.938-.302.596-.233 1.188-.193 1.76-.592.22-.141.673-.18.903-.215.342.113.282.613.272.643a.543.543 0 0 1-.107.242m-5.587.685c.038.013.083-.005.117-.045.008-.007.014-.018.021-.026-.043-.026-.075-.013-.103.02a.27.27 0 0 0-.035.051m-.106.09c.015.018.031.031.043.02-.012.011-.028-.002-.043-.02m.048.013l-.004.005.004-.005m.058-.103c-.021.035-.04.076-.058.1l-.001.003.001-.003c.018-.024.037-.065.058-.1m-.057-.049c.008.014.017.023.025.031a.09.09 0 0 1-.025-.031m-.095.125c-.003.005-.009.014-.011.027.002-.013.008-.022.011-.027m.002-.001zm-.438.01c.024.002.048.001.065-.018.005-.005.009-.015.013-.024l-.149.029c.012.004.027.005.037.006l.004.001-.008.004c.014-.001.028.002.038.002m-.082-.014c.017.012.017.027.007.047-.008.012-.018.025-.024.043.005-.012.017-.027.024-.043.004-.004.006-.008.01-.01a.087.087 0 0 1 .027-.025c-.012-.005-.027-.008-.044-.012m-.491.295c.026-.007.059-.036.085-.044-.026.008-.058.038-.085.044m-.126-.147c-.02.024-.013.047.024.051l.027-.059c-.066-.023-.136-.049-.193.02l-.013.015-.047-.034c-.003.001-.003.003-.005.004-.016.021-.014.051-.016.078a.293.293 0 0 0 .225-.076c.001.001-.001.001-.002.001m6.367-.61a.365.365 0 0 0-.032.026c.012-.011.02-.019.032-.026m-6.356.6c-.002.002-.007.005-.008.008a.013.013 0 0 1 .008-.008M31.617 43.373a.153.153 0 0 0-.053.042c-.023.012-.037-.012-.054-.033l.107-.009zM31.752 43.37a.571.571 0 0 0-.035-.008l.02-.001.015.009zM31.903 43.381a.203.203 0 0 1-.095 0 .16.16 0 0 1 .095 0"/><path fill="#6E7072" d="M31.809 43.381a.193.193 0 0 0-.052.033c.01-.016.016-.033-.005-.045.019.005.037.01.057.012M31.722 43.458s0-.001 0 0c0-.001 0 0 0 0m.001-.001a.1.1 0 0 1 .022-.027c.003-.006.007-.009.012-.015a.092.092 0 0 1-.017.021.006.006 0 0 0-.004.005.018.018 0 0 1-.005.004c-.003.005-.008.009-.008.012M32.475 43.875c-.004.005-.015.009-.037.009-.202-.003-.335-.029-.518-.041-.149-.039-.291-.084-.442-.121-.041-.004-.081.004-.121.012l.163-.052c.077-.034.173.104.294.124.004.002.005.002.006-.002.005-.002.007-.02.011-.035.002-.014.007-.029.014-.035.006-.006.012-.008.021-.004.09.029.168.074.251.072.038.022.094-.104.131-.081.074.026.256.121.227.154M30.996 43.526c-.04-.006-.052-.025-.034-.044.004-.006.006-.007.011-.009a.435.435 0 0 1-.285.057c.003-.023.006-.054.021-.07a.488.488 0 0 1 .013-.01l.057.039c.084-.081.171-.051.258-.02l-.041.057z"/><path fill="#6E7072" d="M30.685 43.54l-.057-.018.001-.002c.019.002.037.008.059.01l-.003.01zM41.081 42.147c-.139.156-.343.137-.643.37a.102.102 0 0 0 .018-.018c.066-.075-.018-.104-.147-.081a.805.805 0 0 0-.428.24l-.037.046c-.02.028-.038.054-.059.077-.377.426-1.057.278-1.568.49-.137.057-.291.068-.458.112-.854.317-1.708.29-2.639.464-.249.031-.479-.041-.697-.068-.153.004-.309.076-.435.09-.196.019-.368 0-.534-.033.182 0 .315.018.519.013.021-.001.032-.006.038-.013.027-.029-.158-.122-.236-.141-.017-.008-.031.006-.048.023a.387.387 0 0 1-.017.021c-.006.006-.012.012-.017.02-.018.02-.033.031-.048.023-.081.01-.162-.032-.255-.053-.008-.004-.014-.004-.017.002-.008.008-.012.025-.014.041-.003.016-.003.029-.008.035-.002.001-.005.003-.007.001-.124-.013-.229-.148-.302-.111-.059.021-.109.042-.16.062-.032.008-.064.018-.098.014l-.069-.021c-.162-.054-.349-.094-.521-.138l.003-.009a6.087 6.087 0 0 0-.06-.006c.003-.006.008-.01.014-.016a.668.668 0 0 1 .151-.117c.25-.012.484-.038.711-.068.02.022.035.045.057.031l.007-.009a.171.171 0 0 1 .043-.036l.101-.013.035.007-.016-.01.226-.041c.018 0 .034.002.048.005.05.007.098.014.128-.021a.086.086 0 0 0 .013-.02l.04-.008-.006.012.013-.014c.057-.01.114-.021.17-.033.111-.021.225-.041.338-.066.732-.169 1.418-.256 2.174-.447.407-.102.793-.23 1.168-.369.747-.285 1.483-.299 2.189-.758.272-.168.83-.257 1.114-.322.423.076.357.584.347.617a.614.614 0 0 1-.121.244m-6.984 1.143c.054.015.118-.012.167-.068l.006-.008c-.062-.031-.108 0-.148.045a.212.212 0 0 0-.025.031m-.071.095zm.02-.023c-.008.008-.014.018-.02.022.006-.005.012-.014.02-.022m-.025.029l.002-.002-.002.002m.045-.06l-.019.028.019-.028m.03-.041l-.022.031c.006-.011.015-.022.022-.031m-.193.08c.016-.021.037-.003.058.012-.021-.015-.042-.033-.058-.012m.123-.129a.15.15 0 0 1 0 0m-.136.154l-.002.004.002-.004m.008-.02c-.004.006-.006.013-.009.02l.009-.02m.001-.001v.002-.002m.002-.001l-.002.001.002-.001m0-.003zm-.544.019c.033.002.065 0 .086-.025a.05.05 0 0 0 .015-.02l-.189.037-.012-.002h.002c.019.01.015.026.005.046l-.005.004a.28.28 0 0 0-.026.038c.006-.01.021-.026.031-.042a.113.113 0 0 1 .05-.037.224.224 0 0 0-.044-.007.34.34 0 0 1 .047.002l.005.001c-.003 0-.005.001-.008.004a.632.632 0 0 0 .043.001m-.723.289c.031-.009.075-.035.104-.045-.029.01-.073.036-.104.045m-.159-.141c-.021.022-.008.044.033.046l.035-.057c-.089-.025-.178-.047-.257.033l-.059-.033c-.005.002-.009.004-.011.008-.018.019-.016.047-.019.072a.389.389 0 0 0 .281-.075c.001.003-.003.005-.003.006m7.963-1.02l-.039.032c.012-.011.028-.021.039-.032m-7.946 1.005c-.003.004-.007.006-.013.009.005-.003.009-.005.013-.009"/></symbol><symbol viewBox="-33.3 -28.93 58.75 58.75" overflow="visible" id="lightning" xmlns="http://www.w3.org/2000/svg"><path fill="#fcb731" d="M1.948-12.681l13-.25-14.25 19.5h11.25l-30 23.25 9.532-15.577-9.532-.173 9.754-16.885h-14.504l15-26.115h19.5z"/></symbol><symbol viewBox="0 -49.52 320 320" id="logo" xmlns="http://www.w3.org/2000/svg"><g transform="translate(-107.847 -62.903)"><defs><path id="ca" d="M33.338 107.931H533.59V459H33.338z"/></defs><clipPath id="cb"><use xlink:href="#ca" overflow="visible" width="100%" height="100%"/></clipPath><path d="M360.203 151.207c-3.169 3.59-7.75 3.261-15.04 7.9.318-.227.55-.435.71-.618 2.195-2.492-8.63-.95-13.9 4.365-4.307 4.548-10.461 6.212-17.043 7.061-6.587.886-13.566.993-19.859 2.7-3.152.869-6.603.951-10.453 1.454-9.911 2.16-19.78 2.518-29.809 1.956-10.045-.596-20.22-2.023-31.235-4.222-5.838-1.297-10.405-4.671-14.66-7.425-1.653-.767-3.404-1.622-5.161-2.238-.87-.333-1.734-.63-2.537-.972a25.468 25.468 0 0 1-2.182-1.211c-2.07-1.309-3.91-2.637-5.396-4.306-1.507-1.613-2.94-3.083-3.972-4.91 1.369 1.829 2.845 3.063 4.244 4.533.73.692 1.43 1.485 2.278 2.139.853.656 1.762 1.34 2.779 2.069.576.387.879.469.987.345.413-.466-1.954-3.895-3.003-5.171-.437-.893-2.863-.175-3.329-1.102-.78-.641-1.397-1.405-1.948-2.243-.495-.913-.937-1.875-1.477-2.83-.316-.94-1.64.393-1.806-.087-.433-.613-.73-1.274-.964-1.928-.198-.686-.28-1.399-.388-2.041-.203-1.292-.383-2.363-1.125-2.964-.51-.489-1.037-.942-1.492-1.403-.436-.472-.858-.928-1.278-1.38-.46-.613-.91-1.234-1.235-1.971-.121-.495-.174-1.068-.256-1.605a61.516 61.516 0 0 1-.72-5.317c.192-.019.392-.051.583-.068.016-.716-.147-1.368-.73-1.997-.01-.201-.018-.403-.026-.606.016-.013.026-.027.042-.044a.52.52 0 0 0 .121-.326l-.178-.045c-.04-1.3-.025-2.586.054-3.823l.17.028c.126 2.157.778 4.25 2.46 5.931-.278-.225-.496-.26-.617-.123-.127.146-.152.47-.032.969l1.165.486c-.073-1.014-.133-2.001-.414-2.897-.265-.906-.613-1.757-1.503-2.518 0 0 .199-.897.364-1.336-.326-.564-.91-.455-1.424-.515a20.476 20.476 0 0 1 0-1.346c.519.425 1.155 1.308 1.663 2.041l1.046 1.321c1.136 5.175 3.556 9.734 6.414 13.677-.09.506-.286.964.194 1.256.492.126.885.32 1.215.547.44.555.864 1.125 1.323 1.657.13.208.265.421.404.637l-.11-.36c1.178 1.114 2.348 2.218 3.522 3.326.203.317.468.554.648.787.735.92 1.498 1.865 2.628 1.613.23.162.466.33.7.497l-.23.026.356.065c.938.756 2.091 1.24 3.14 1.85.47.715.924 1.53 1.486 2.203-.562-.673-1.017-1.488-1.485-2.202 1.06.55 2.073 1.173 3.17 1.678 1.112.462 2.238.933 3.377 1.405 7.388 2.831 14.848 4.543 22.51 5.667a126.334 126.334 0 0 0 23.938 1.172c9.067-.452 17.76-1.75 26.158-3.642 8.362-1.884 16.422-2.918 24.46-4.521 8.022-1.598 16.014-3.745 23.888-7.93 6.07-3.016 18.109-5.178 24.203-6.783 8.862.58 7.1 9.38 6.8 9.962-.65 1.596-1.37 2.78-2.183 3.703m-155.825 2.94c.126.107.286.152.502.093.678.01 1.574-.307 2.434-.48.89.814 2.432 1.206 3.9.92-.997-1.38-2.436-1.24-3.9-.92-.433-.39-.711-.872-.776-1.423.065.55.343 1.034.776 1.423-.86.173-1.757.49-2.434.48-.216.059-.376.014-.502-.093m-1.901-1.567c.504-.263.816-.226 1.035-.041-.219-.185-.53-.222-1.035.041m-8.057-8.078c.497.718 1.071 1.28 1.917 1.185-.996-.929-1.99-1.855-2.985-2.78-.04-.069-.085-.142-.127-.212l.005.022c.05.179.021.301-.05.382-.1.115-.296.15-.522.146a5.384 5.384 0 0 0-1.047-.121c.215.005.67.118 1.047.121.415.095.819.245 1.202.495.172.258.355.517.56.762m-12.905-14.784l-.06.596.05.008c.053-.202.112-.411.17-.62zm163.647 29.388c-.245.179-.535.373-.877.578.294-.2.589-.394.877-.578m-151.176-15.28a1.191 1.191 0 0 0-.126-.086c-.17-.28-.337-.55-.498-.821.215.296.422.574.572.82.018.03.036.057.052.087m-10.304-14.744a6.327 6.327 0 0 1-.255-.245c.08.065.168.149.255.245M231.713 84.158c-.255.31-.542.514-.868.696-.81.455-.806-.584-1.984.85-.037.047-1.572-.894-1.613-.847.455-.734.83.164-.077 1.01-.717-.114-1.834.25-2.68 1.28-.355.433-1.529-1.163-1.741-.48-.29 1.046-1.556-.323-2.04.265-.894 1.093-2.077 1.534-3.368 1.829-1.98.43-4.218.523-5.79 1.867-.764.691-1.821.85-2.829 1.42-2.376 2.012-5.647 3.96-8.225 5.119-2.565 1.15-4.043 3.531-6.16 5.482-.568.483-1.676.98-1.676.98-.767.155.164 4.553-.558 4.754-.174.103-1.184-1.912-1.307-1.764-.226.276-2.561 1.493-2.702 1.817-.143.322.596 2.777.414 2.995a.904.904 0 0 1-.062.07c-.03.038-.057.074-.09.111-.674.821 1.383 2.518.447 2.99.74-.772-1.46-2.408-.611-3.215.012-.012.026-.028.037-.037.436-.534-1.776-.646-2.416-.404-.035.002-.06.011-.073.03-.068.082.06.329.185.573.127.243.255.485.193.566-.016.019-.04.028-.078.028-.005.008-.008.014-.016.019-.312.38 2.025 1.703 1.391 1.959-.035.004-.06.012-.071.028-.054.065.138.226.334.377.198.154.399.296.374.329-.005.005-.008.006-.02.008-.598.366-2.023.206-2.316.566a.23.23 0 0 0-.052.194c.019.421.055.801.112 1.17 0 .213-.01.418-.135.592-.154.081-.312.165-.469.25-.358-.247-.829-.469-1.304-.69-.004.224.179.602.174.816.005-.214-.178-.593-.174-.817.475.222.946.444 1.304.691-.689.359-1.305.837-1.876 1.37a.715.715 0 0 1-.153-.153c.033.068.063.141.087.216-.382.36-.742.748-1.09 1.14l-.116-.038c.301-.607.346-1.218-.203-2.103.195.262.48.306.643.105a.54.54 0 0 0 .048-.073l-.576-.46c-.16.131-.318.274-.444.426-.315.382-.418.832.169 1.397l-.56.289c.133.233.563.309.92.42-.065.125-.13.246-.192.372-.654-.392-1.256-1.508-1.256-1.508.248-.892.48-1.754.807-2.572.28-.835.553-1.653.911-2.43.232-.002.475.032.547-.053.021-.027.026-.064.012-.115a1.462 1.462 0 0 1-.26-.582l.285-.699.237-.17-.175.041.758-1.552c.099-.09.195-.18.29-.24.161-.113.332-.217.44-.347.133-.163.165-.374-.052-.706l.154-.27.062.12-.033-.168.663-1.15c.44-.747.96-1.449 1.464-2.197.386-.547.787-1.068 1.196-1.571 3.21-3.906 5.5-10.925 9.763-13.994 2.61-1.919 5.022-4.871 7.499-6.824 2.631-2.078 3.663-3.766 7.144-5.234 2.7-1.14 5.254-1.773 8.725-2.793 1.989-1.849 6.5-2.308 8.95-2.626 11.994 3.767 5.171 9.19 5.18 9.517-.286 1.684-2.972 1.183-3.428 1.738m-48.926 34.084c.09.126.208.415.359.607a3.41 3.41 0 0 0-.359-.607l-.01-.017.01.017m1.413-2.325a.395.395 0 0 0-.085.254c.135.347.192.643.198.92l.225-.744.316-.717c-.26.082-.522.13-.654.287m6.742-9.929s.66-.164.99-.248c.213-.435-.088-.745-.26-1.09-.606.427-1.163.905-1.634 1.476-.04.052-.082.103-.122.156a6.048 6.048 0 0 0-1.09 1.988c.107-.506-.216-.602-.762-.138l.073.913c.631-.373.378-2.884.875-3.356a3.33 3.33 0 0 0 .405-.42c.317-.378 1.413 1.31 1.525.72m.678-1.45l.054.113.787-.531.005-.047-.846.464m-8.499 7.872l.01-.001c.21-.04.372.1.504.274.078.152.18.31.298.46-.076-.096-.17-.292-.298-.46a1.046 1.046 0 0 1-.126-.529c-.124.09-.257.17-.388.256m4.253-3.598c0-.002.002-.003.005-.006-.001.001-.005.004-.005.006m-.471-1.41c.153.444.36.893.45 1.217.048.092.056.148.03.182.026-.033.02-.09-.03-.182-.089-.322-.297-.771-.45-1.217m-.275 1.835c.014.019.026.036.042.055l-.042-.055m.34-.425a.457.457 0 0 1 .042.006l-.042-.006M186.955 108.81h.005-.005m-.476.008c.065-.077.26-.045.456-.012l.011.003-.01-.003c-.196-.033-.392-.065-.457.012m.11.359c.002.006.005.007.01.012-.007-.005-.008-.006-.01-.012m-2.828 2.746a.993.993 0 0 0 .129-.126c.147-.179.173-.402-.081-.745l-.612 1.308c.098-.094.193-.181.286-.243l.032-.022-.009.057c.098-.07.182-.144.255-.23m3.142-4.52a.632.632 0 0 0 .308-.204c.208-.255.253-.697.108-1.26-.241 0-.398.067-.493.182-.214.263-.108.77.077 1.282" fill="#caac6f"/><path d="M138.454 241.363c-.413-.01-.85.048-1.348.215-.55.002-.634-.485-.838-.973.713.284 1.445.534 2.186.758M141.161 242.41c-.213-.14-.438-.274-.658-.399l.39.12zM144.112 243.843c-.708-.144-1.324-.444-1.9-.78.596.07 1.23.299 1.9.78M142.213 243.062a3.516 3.516 0 0 0-1.283.097c.122-.062.23-.135.3-.216.123-.14.144-.308-.053-.522l-.016-.01c.35.212.692.43 1.052.651M140.928 243.159c-.306.158-.734.26-.93.355.292-.147.604-.27.93-.355m-.93.354a.057.057 0 0 1-.021.01c.007-.001.015-.007.021-.01M152.715 255.799c-.098.113-.384.1-.911-.092-4.14-1.662-6.784-2.86-10.376-4.613a508.037 508.037 0 0 1-8.115-5.546c-.81-.44-1.658-.638-2.506-.856 1.158.171 2.332.353 3.614.59 1.73.194 2.755 3.046 5.091 4.38.097.1.212.016.348-.137.056-.066.117-.143.179-.22a5.63 5.63 0 0 1 .194-.237c.243-.276.517-.475.802-.169 1.636 1.14 2.897 2.564 4.643 3.088.654.65 2.579-.91 3.224-.266 1.35.877 4.232 3.603 3.813 4.078M126.217 237.889l-1.164.475c-.562-.339-.745-.665-.573-.859.085-.093.245-.157.486-.178-2.338 0-4.229-.74-5.995-1.79a.1.1 0 0 1 .025-.027c.06-.071.12-.144.181-.22.058-.073.117-.149.18-.219.216-.245.468-.444.879-.425l.806 1.085c2.237-.418 3.688.861 5.175 2.158M118.97 235.537l-.116.126-1.007-.786.06-.02 1.064.68M344.48 254.327c-3.423 3.884-8.023 3.004-15.905 7.285.392-.245.669-.467.844-.666 1.942-2.204-8.674-1.384-14.202 3.454-4.601 4.223-10.823 5.435-17.383 5.815-6.575.435-13.478.03-19.777 1.396-3.16.624-6.557.557-10.362.849-9.84 1.682-19.458 1.616-29.143 1.048-9.697-.553-19.463-1.728-29.89-2.487-5.526-.516-10.125-2.919-14.566-4.441-3.296-.81-7.023-.523-9.753-.958-4.274-.78-7.81-2.19-11.12-3.673 3.832 1.104 6.586 2.19 10.915 3.266.53.109.813.09.911-.022.436-.495-2.834-2.812-4.292-3.578-.734-.568-2.446 1.202-3.185.63-1.782-.377-3.255-1.448-5.028-2.426-.26-.217-.466-.113-.644.089a2.9 2.9 0 0 0-.286.417c-.087.145-.166.29-.245.375-.083.091-.159.128-.24.065-2.505-1.022-3.9-3.802-5.67-3.692l-3.685-.073c-.72-.09-1.427-.198-2.136-.47-.413-.272-.838-.55-1.264-.832-3.076-1.915-6.584-4.075-9.843-5.973l.101-.143c-.39-.163-.777-.341-1.166-.528 1.17-.599 4.232-.878 4.232-.878l3.803 1.24c1.273.341 2.53.68 3.772 1.014 2.496.624 4.927 1.294 7.374 1.772.279.44.434.907.99.812a3.763 3.763 0 0 1 1.304-.374c.717.135 1.431.27 2.139.4.234.103.473.209.71.316l.018.012c.248.214.225.404.078.568-.058.07-.135.132-.227.193a4.47 4.47 0 0 0-.905.482c.175-.12.602-.279.905-.482a3.44 3.44 0 0 1 1.267-.246c-.387-.183-.763-.352-1.135-.527l-.301-.244c1.636.284 3.246.624 4.891.829.36.121.71.231.986.35 1.12.474 2.24.948 3.152.209.29.035.584.076.88.111l-.203.13.36-.106c1.236.161 2.48.321 3.723.484 2.439.236 4.902.475 7.424.717 16.194 1.323 31.105 2.582 47.95 2.074 9.12-.419 17.86-1.293 26.359-2.806 8.468-1.49 16.575-1.972 24.677-3.026 8.087-1.05 16.181-2.606 24.287-6.21 6.239-2.563 18.299-3.849 24.404-5.04 4.387.608 5.903 3.04 6.412 5.424.539 2.372-.174 4.702-.321 4.968-.626 1.297-1.28 2.305-1.99 3.107m-154.732 2.582c1.112.515 2.69.438 4.055-.26-1.381-1.02-2.772-.473-4.055.26m-2.137 1.239c.005 0 .006-.005.014-.01.64-.284 1.358-.788 2.125-1.23-.767.44-1.486.946-2.125 1.23-.008.005-.01.01-.014.01M184.829 257.517c-.011.016-.025.031-.038.045.014-.014.027-.03.038-.045m0 0l.001-.001zm-8.695-3.388c-1.389-.17-2.744-.45-4.116-.67.36.133.697.255.967.381.032.014.063.03.096.042a2.536 2.536 0 0 0-.154 0c.287.121.582.234.887.324.825.334 1.625.49 2.32-.077m-17.45 1.265v-.002zm.793-1.258c-.227.446-.465.884-.784 1.247.32-.363.557-.801.784-1.247m-1.104 1.56c.014-.01.026-.02.037-.03-.01.01-.023.02-.037.03m-1.28-1.754c.698.087 1.764-.05 2.461.038-.697-.089-1.763.05-2.46-.038m-2.66-3.19c-.193.22.026.536.676.81l1.093-.665c-1.702-1.012-3.327-2.142-5.49-1.402l-.97-.967a.933.933 0 0 0-.648.33c-.186.209-.306.485-.464.724 1.917.803 3.908 1.282 6.248.96-.215.047-.367.124-.444.21m174.14 10.862a11.25 11.25 0 0 1-.916.514c.309-.18.616-.35.916-.514m-173.398-11.116c-.1.015-.197.03-.297.042.084-.017.185-.033.297-.042" fill="#fabb00"/><path d="M174.927 254.424a5.33 5.33 0 0 1-1.113-.215 14.215 14.215 0 0 1-.733-.327c.568.022 1.181.18 1.846.542" fill="#fabb00"/><path d="M176.137 254.132c-.697.563-1.498.408-2.323.077a5.33 5.33 0 0 0 1.113.215c-.665-.362-1.28-.52-1.846-.542-.031-.014-.064-.03-.095-.042-.271-.127-.608-.248-.972-.383 1.377.222 2.733.503 4.123.675" fill="#fabb00"/><path d="M256.248 226.343a1.966 1.966 0 0 0-.47.403 2.38 2.38 0 0 0-.228.294c-.306.226-.48-.184-.722-.54zM257.812 226.153l-.249.033.472.127zM260.06 226.55c-.434.126-.86.078-1.264-.018.349-.157.763-.18 1.263.019M258.793 226.53c-.232.106-.44.27-.623.475-.025.027-.048.056-.073.086.143-.281.208-.573-.051-.775l-.011-.004c.252.077.5.158.758.218" fill="#009ee0"/><path d="M257.66 227.783l.016-.032-.015.032m.015-.034c.123-.24.263-.461.421-.66-.127.256-.334.502-.42.66M267.852 234.76c-.072.083-.227.131-.485.134-2.716-.068-4.495-.403-6.95-.663-2.014-.656-3.936-1.457-5.955-2.04-.564-.066-1.085.102-1.612.252a39.07 39.07 0 0 1 2.161-.944c1.012-.557 2.325 1.767 3.972 2.116.03.022.055.017.077-.006.065-.072.094-.328.133-.595.042-.267.093-.546.196-.66.063-.07.14-.082.248-.004 1.206.466 2.266 1.262 3.384 1.201.158.114.332 0 .51-.201a5.21 5.21 0 0 0 .36-.48c.12-.175.24-.35.355-.484.178-.199.35-.308.509-.196 1.034.363 3.535 2.074 3.097 2.57M247.99 228.992c-.557-.091-.695-.465-.382-.822a.492.492 0 0 1 .069-.072c-1.307 1.006-2.557 1.158-3.816.977.087-.444.1-.943.359-1.233a.634.634 0 0 1 .122-.109c.24.21.725.624.725.624.013-.014.027-.026.037-.04 1.132-1.284 2.259-.767 3.41-.251z" fill="#009ee0"/><path d="M243.83 229.236c-.26-.092-.517-.18-.767-.27l.033-.045c.256.064.515.112.768.154zM382.81 213.898c-1.87 2.125-4.59 1.617-8.52 4.927.052-.053.1-.104.147-.157 1.034-1.172.06-1.824-1.592-1.701-1.655.125-3.993 1.023-5.691 2.948-.3.343-.58.715-.835 1.12-.39.666-.815 1.253-1.27 1.77-5.109 5.795-13.898 2.707-20.542 5.594-1.816.778-3.885.812-6.125 1.343-11.377 4.406-22.79 3.224-35.175 5.47-3.303.45-6.425-.863-9.323-1.471-2.071-.068-4.142 1.104-5.798 1.307-2.6.323-4.932-.129-7.16-.71 2.433.077 4.257.435 6.955.365.247-.015.399-.066.474-.152.448-.506-2.141-2.106-3.198-2.446-.154-.1-.308-.007-.466.169-.123.14-.247.337-.374.532a4.439 4.439 0 0 1-.377.536c-.157.178-.31.27-.461.166-1.104.113-2.198-.613-3.428-1.012-.102-.072-.18-.056-.236.006-.102.117-.14.404-.166.678-.03.28-.045.542-.107.612-.019.022-.042.026-.07.01-1.656-.257-3.101-2.5-4.08-1.887-.743.373-1.429.716-2.1 1.051-.426.135-.85.252-1.319.216-.298-.129-.607-.26-.914-.397-2.208-.922-4.711-1.713-7.017-2.333l.022-.168a7.685 7.685 0 0 1-.788-.084 4.41 4.41 0 0 1 .582-.806c.673-.765 1.575-1.482 1.575-1.482 3.32-.199 6.444-.478 9.47-.969.263.337.465.74.761.488.094-.155.196-.29.292-.4.121-.136.24-.244.365-.33l1.321-.231.481.096-.23-.144 3.006-.578c.236.025.46.045.65.087.609.14 1.223.28 1.625-.175.092-.107.174-.245.244-.424l.534-.112-.088.176.188-.196 2.263-.501c1.476-.342 2.97-.685 4.49-1.036 9.77-2.36 18.901-3.528 29.011-5.965 5.458-1.45 10.654-3.068 15.677-5.065 9.998-3.915 19.902-3.238 29.458-9.878 3.687-2.382 11.251-3.019 15.112-3.632 5.712 1.936 4.731 10.272 4.568 10.77-.498 1.973-1.094 3.185-1.82 4.005m-93.503 11.495c.638.2 1.378-.083 1.982-.767.113-.13.223-.272.326-.427-.7-.453-1.247-.203-1.71.321-.215.244-.412.55-.598.873m-1.762 1.505c.262.263.521.528.706.319-.185.21-.444-.056-.706-.319m1.762-1.506c-.353.603-.66 1.258-.97 1.677 0 .005-.005.01-.007.014.002-.005.006-.01.006-.014.312-.42.62-1.074.97-1.676M286.778 226.644c-.076.094-.142.254-.203.501.062-.247.129-.408.203-.501m.017-.016v-.001zm-7.312.17c.412.06.791.029 1.072-.29.093-.106.171-.243.24-.42l-2.523.512c.24.02.464.042.647.086l.065.014a.921.921 0 0 1-.088.042c.192.035.39.055.587.057m-1.363-.231l.015.006c.267.185.22.475.092.765-.157.21-.287.45-.396.705.071-.165.273-.43.396-.705.046-.065.096-.126.147-.183.152-.174.326-.315.52-.414-.265-.047-.518-.114-.774-.174m-8.218 4.958c.419-.134.984-.589 1.403-.722-.419.133-.984.588-1.403.722m-2.107-2.495c-.358.408-.205.809.4.859l.454-.964c-1.136-.404-2.26-.808-3.243.307a3.346 3.346 0 0 0-.198.25l-.792-.565a.547.547 0 0 0-.08.077c-.268.306-.23.83-.276 1.289 1.281.082 2.515-.16 3.754-1.275a.063.063 0 0 1-.019.022m106.496-10.206a5.816 5.816 0 0 1-.52.453c.175-.158.35-.31.52-.453M267.967 228.87l-.152.14c.046-.05.096-.093.152-.14" fill="#009ee0"/><path d="M257.336 190.978a2.906 2.906 0 0 0-.894.706c-.386.229-.594-.175-.895-.532zM259.581 190.933a7.802 7.802 0 0 0-.59-.123l.317-.032zM262.12 191.152c-.547.126-1.075.085-1.59-.006.448-.16.967-.188 1.59.006" fill="#bdcd00"/><path d="M260.531 191.146c-.334.122-.63.316-.885.563.185-.282.274-.574-.05-.771l-.015-.005c.315.075.626.152.95.213M259.08 192.406a.067.067 0 0 1 .006-.01c-.002 0-.003.007-.006.01m.007-.01a3.915 3.915 0 0 1 .56-.687 3.155 3.155 0 0 1-.266.342c-.028.03-.05.059-.073.085-.028.03-.051.054-.071.08a1.309 1.309 0 0 0-.15.18M271.701 199.382c-.085.097-.282.155-.628.168-3.403-.06-5.638-.515-8.684-.713-2.49-.64-4.872-1.421-7.395-1.991-.705-.09-1.361.054-2.023.178.867-.28 1.753-.563 2.723-.872 1.275-.568 2.873 1.748 4.918 2.085.04.023.076.01.104-.022.073-.082.118-.323.172-.576.053-.251.118-.517.235-.647.082-.092.187-.121.333-.031 1.498.458 2.8 1.235 4.198 1.178.655.39 1.563-1.71 2.212-1.324 1.277.425 4.298 2.041 3.835 2.567M246.927 193.547c-.654-.085-.85-.416-.556-.748a.959.959 0 0 1 .163-.144c-1.645 1-3.21 1.15-4.789.965.098-.41.117-.872.377-1.167a.77.77 0 0 1 .22-.172c.302.208.918.625.918.625 1.431-1.33 2.872-.809 4.333-.282zM241.702 193.78c-.323-.092-.648-.183-.961-.27l.037-.042c.321.057.647.11.966.152z" fill="#bdcd00"/><path d="M363.073 171.52c-1.485 1.685-3.701 1.482-6.93 3.993a2.39 2.39 0 0 0 .195-.198c.718-.812-.18-1.125-1.581-.863-1.403.261-3.311 1.096-4.613 2.576a5.987 5.987 0 0 0-.397.496c-.207.3-.425.58-.655.839-4.043 4.584-11.37 2.995-16.896 5.272-1.466.609-3.129.748-4.935 1.221-9.2 3.431-18.411 3.117-28.423 4.988-2.686.353-5.185-.425-7.507-.721-1.66.035-3.358.817-4.705.956-2.112.221-3.974.005-5.759-.328 1.96.005 3.413.168 5.6.108.218-.013.345-.053.397-.114.305-.344-1.715-1.332-2.551-1.53-.162-.083-.332.058-.507.256a4.915 4.915 0 0 0-.181.216 5.01 5.01 0 0 1-.179.216c-.177.199-.349.342-.511.258-.891.096-1.756-.35-2.739-.58-.092-.046-.158-.03-.206.024-.075.085-.108.262-.132.433-.027.169-.046.333-.093.386-.016.02-.037.025-.062.011-1.33-.133-2.462-1.605-3.263-1.205a40.6 40.6 0 0 0-1.715.684c-.347.093-.693.174-1.067.156-.237-.079-.481-.162-.728-.243-1.761-.574-3.762-1.009-5.617-1.475l.021-.107a9.403 9.403 0 0 1-.638-.068c.037-.052.08-.105.129-.162.517-.586 1.652-1.278 1.652-1.276 2.687-.124 5.209-.411 7.664-.714.208.218.362.477.606.317l.076-.092c.152-.171.31-.292.466-.377l1.072-.148.388.062-.184-.093 2.433-.434c.189.008.374.016.523.041.521.081 1.044.162 1.374-.212.052-.061.101-.132.143-.216l.435-.085-.075.117.152-.132 1.834-.354c1.197-.244 2.407-.455 3.639-.728 7.902-1.817 15.277-2.749 23.416-4.811 4.406-1.1 8.575-2.49 12.619-3.982 8.027-3.08 15.956-3.211 23.572-8.178 2.938-1.794 8.956-2.758 12.015-3.462 4.532.807 3.851 6.305 3.719 6.647-.351 1.224-.778 2.033-1.291 2.615m-75.282 12.317c.58.146 1.276-.138 1.807-.739.022-.028.049-.057.073-.087-.67-.327-1.183.005-1.613.496a5.187 5.187 0 0 0-.267.33m-.828 1.119l-.007.009.007-.009m.066-.082zM286.979 184.928c.007-.01.017-.018.025-.027-.008.009-.018.017-.025.027m.499-.653c-.072.103-.143.204-.211.298.068-.094.138-.195.211-.298m.304-.429c-.078.104-.152.211-.228.318.076-.107.15-.213.228-.318m-2.074.844c.186-.209.411-.042.631.133-.22-.174-.445-.342-.631-.133M285.559 184.983l-.013.031.013-.031M285.666 184.745c-.002.003-.004.007-.007.009.003-.002.005-.006.007-.009m.02-.027c-.005.005-.009.012-.012.017a.136.136 0 0 1 .012-.017m.013-.02v.001zm-5.856.211c.36.029.692-.006.926-.273a.94.94 0 0 0 .144-.214l-2.041.387-.124-.019.011.006c.213.112.169.301.061.491l-.043.046a2.481 2.481 0 0 0-.296.417c.059-.106.231-.278.339-.462.155-.169.334-.309.549-.401l-.494-.077c.191.008.369.014.516.039a.42.42 0 0 0 .049.009 1.465 1.465 0 0 0-.07.029c.154.016.312.027.473.022m-7.819 3.123c.337-.093.804-.396 1.143-.488-.338.092-.805.394-1.143.488m-1.714-1.52c-.215.244-.082.465.366.487l.383-.629c-.972-.267-1.929-.505-2.788.379l-.627-.376a.48.48 0 0 0-.114.095c-.172.195-.156.505-.196.78 1.029.079 2.026-.061 3.043-.803a.704.704 0 0 0-.067.067m85.834-10.999a4.504 4.504 0 0 1-.421.338c.142-.118.283-.23.421-.338m-85.632 10.83l-.135.102c.039-.033.083-.068.135-.102" clip-path="url(#cb)" fill="#bdcd00" transform="matrix(1.5523 0 0 1.5523 -147.931 -95.76)"/></g></symbol><symbol viewBox="720 320 2560 2560" id="menu" xmlns="http://www.w3.org/2000/svg"><path d="M720 575.998v384h2560v-384H720zm0 832.004v384h2560v-384H720zM720 2240v384h2560v-384H720z"/></symbol><symbol viewBox="-0.695 -0.077 66 66" overflow="visible" id="photovoltaique" xmlns="http://www.w3.org/2000/svg"><ellipse fill="#FFF" cx="32.48" cy="32.263" rx="30.605" ry="30.852"/><g fill="#6E7072"><path d="M53.268 8.574a.113.113 0 0 0 .07-.025c-.041-.001-.061.009-.07.025zM39.667 1.038l.187.013c-.119-.025-.167-.024-.187-.013zM59.08 15.819c-.011-.008-.015-.006-.024-.011l.324.567-.3-.556zM8.634 10.348l.144-.159c-.066.071-.113.112-.144.159zM26.001.722c-.055.04-.156.072-.254.103.128-.024.228-.052.254-.103zM59.994 20.731l-.009-.27c-.036.02-.039.12.009.27zM62.521 29.406c.007-.008.013-.01.02-.026-.01-.011-.015.003-.02.026zM62.363 25.805l-.095-.244c.025.107.055.243.095.244zM62.218 25.446l.05.115c-.018-.066-.034-.12-.05-.115zM64.249 33.768c.014-.276-.047-.516-.102-.764l.102.764zM.881 39.172L.83 39.12c.024.053.04.06.051.052zM63.434 33.394l.026-.189a.83.83 0 0 0-.026.189zM57.616 16.619c-.212-.172-.402-.676-.479-.622.164.219.305.586.479.622zM6.118 43.989l.071.151a1.36 1.36 0 0 0-.071-.151zM63.434 33.394l-.03.22c.018-.018.032-.042.049-.063a.688.688 0 0 1-.019-.157zM21.018 62.771l-.01-.002-.067-.008zM22.592 63.486l-.36-.087a.993.993 0 0 0 .36.087zM64.147 33.004l-.067-.434c.008.156.037.297.067.434zM40.897 63.778l-.161.056a.786.786 0 0 0 .161-.056zM27.278.541l.149-.004c.012-.024 0-.037-.149.004zM16.898 7.098l-.002.002v.002zM17.366 6.673c-.179.08-.379.287-.468.425.166-.103.309-.22.468-.425zM15.761 7.795l.066-.032a.311.311 0 0 0-.066.032zM27.246 3.207l-.002-.011-.006.011zM24.852 3.766a.742.742 0 0 0-.174.004.65.65 0 0 0 .174-.004zM11.292 11.997l-.001-.004-.008.01z"/><path d="M3.978 33.069c-.142-2.265-.035-5.254.559-7.449-.074-.523.096-1.229.269-1.937l.266.001.105-.599c.149-.208-.096.456.128.074l-.08-.266c.096-.02.578-1.434.407-.425.263-.729.555-1.448.874-2.154.226-.462-.073-.367.237-.852.118-.071-.045.207.058.205.932-1.429.467-1.998 1.427-3.311l-.046.134c.092-.267.386-.7.363-.724-.333.027-.045.319-.442.647-.158-.154.239-.58.085-.645.282-.27.302-.528.49-.806.435-.385.861-1.085 1.262-1.311.124-.255.153-.636.546-1.092.412-.208.053.18.49-.21l-.029-.153c.339-.339.313-.259.345-.206.358-.363.167-.432.68-.826l-.167.338c.302-.367.451-.491.94-.931.039.063-.156.239-.312.356.388-.106.388-.479.549-.592-.08-.006-.432.289-.351.044.256-.204.407-.598.683-.64l-.189.328c.451-.525.171-.363.807-.831-.027.034.009.045.012.077.284-.442.889-.733 1.491-1.153l-.092.11c.211-.211.285-.392.42-.478-.387.182-.314.086-.416.009.577-.148.562-.694 1.411-1.083.025.07-.116.258-.368.332-.143.354-.08.518-.474.914.25-.24.575-.481.551-.36l-.02-.225c.169-.121.316-.197.45-.281.009-.154-.469.052-.102-.276.432-.348.354.018.38-.103.608-.45.155-.351.822-.651-.055.05-.162.149-.226.164.489-.191 1.107-.649 1.353-.504-.045.082-.024.152-.206.226l-.01-.035c-.421.418.397-.264.34.012-.093-.095.566-.399.875-.511l-.157-.088c.809-.856.066.28 1.021-.207.588-.357-.253.062.091-.196.438-.152.642-.101 1.25-.397.195-.012.581-.063.664.08.361-.201 1.19-.313 1.366-.528-.707.068-.61.361-1.445.421l.164-.228c.538-.171 1.207-.463 1.601-.508-.084-.009-.13-.039-.091-.085.764-.271.956-.483 1.74-.604.132.123-.325.191-.648.283.521.003.518-.118 1.301-.22.065.118-.521.09-.584.237l.844-.208c-.002.008.003.016.005.025.088-.229.656-.101 1.173-.232 1.248-.16 1.414-.452 2.11-.674.194.045.252.097.176.155-.319-.075-.258-.004-.363.059.429-.053.947.155.713.253.672-.087-.25-.104.162-.186.31-.009.62-.014.93-.01-.11-.108-.442-.128.043-.217.408-.038.606-.007 1.14.008-.079.052.163.168-.236.154.256.043.655.069.815-.032-.578-.13.962-.041.538-.232l.577.143c-.133-.013-.153.055-.348.021.152.175.48-.005.687-.004.203.047.732.129.769.196.188-.026.631.078.702.172.275.005.037-.104.125-.146l.92.17c.032.1.062.365-.082.373.359-.017.174-.243.694-.132-.332.109.656.285.181.397.269.188 1.101.382 1.567.468.32-.058-.473-.212-.408-.344 1.302.3 1.501-.041 2.424.342l-.234-.125c.613.132.542.12.926.135-.223.109.492.689 1.427 1.064.117-.047-.45-.387-.243-.451l.633.25c.039.033-.041.03-.131.016.584.194.92.692 1.17.585l.424.516-.162-.214c.115-.039.729.255.867.299.656.254.833.46 1.096.754-.062-.126-.231-.432.248-.163-.155.237.909.716.81.835.184.124.451.421.542.338l-.137.128c.189-.18.836.304 1.349.652-.32.18.548.403.556.821.242-.108.885.643 1.096.573.358.315.173.443.21.578l.22.088c.099.243.716.878 1.016 1.316l.483.222.052.199c.09.023.383.31.273.069l.166.208c.187-.131.29.244.705.597.049.119-.014.127-.109.056.165.209.004.192.035.353-.071-.189.91.507.546-.124.044-.098.354.2.482.435l-.064.25.357.13c.271.319.264.54.434.829-.206-.277-.747-.401-.248.315-.281-.365-.501-.486-.675-.65.099.15.135.234-.099.058.447.513.232.112.638.65-.17.069-.11.257.153.779l-.128-.438c.03.005.06.021.087.043-.074-.15-.076-.205-.038-.274.068.112.618.532.581.689-.119-.733.808.902.725.444.083.042.338.448.28.538-.399-.429.031.475-.127.456.147.16-.099-.455.099-.239.177.29.197.562.232.756l-.096-.109.169.499c.12.035-.098-.518.167-.113.024.13.278.542.207.56-.213-.15-.287.071-.494-.279.166.292.639 1.255.607.791l.164.37c-.036-.26-.212-.968.153-.237l-.036.008.354.464.013.265c.04-.025.114.041.19.238-.03.072.024.264-.049.275.236.562.295.487.376.542.133.317.142.449-.015.336.14.446.418 1.213.417 1.545.255.575 0-.134.221.181-.138.604.429 2.018.647 3.019.218-.324.085.267.361.409-.12-.202-.053.994-.274.123l.116.534c-.09.388-.257-.868-.371-.282.105.592.458.948.437 1.675-.218-.219.119.543-.114.385-.081-.141-.08-.339-.119-.538l-.024.127c.067 1.324.269.359.459 1.046.077.814-.114.65-.203.702-.034.128.013.533.07.745-.137-.489.089-.919.221-.697-.203.367.016 1.209.104 1.435.219-1.176.006-.809.203-1.924-.084-.148-.269-.109-.246-.773.135.405.108-.039.13-.159-.101.138-.088-.454-.162-.648.071-.195.309.368.278-.31l-.283-.093c.004-.265.212.086.07-.462.18.282.209-.123.348.632.114-.939-.314-1.376-.542-2.048.029.067.066.069.098.136-.1-.136-.143-.405-.202-.606-.037-.47.196.336.241.204l-.163-.741c.006-.017.01-.021.015-.023-.076-.188-.149-.365-.1-.449.138.2.249.267.349.401l-.368-.737c.111.063-.02-.678.19-.143-.115-.38-.226-.761-.354-1.137l.146-.149c-.112-.265-.148-.262-.073.073-.064-.412-.861-1.615-.456-1.529-.462-.828-.521-1.167-1.059-2.166.508.73-.215-1 .235-.188-.157-.526-.378-.549-.595-.917-.107-.393.131-.314.384.048l-.301-.422.037-.007-.294-.349c-.134-.461.117-.175-.092-.616l-.193-.016-.077-.334c-.006.145-.169-.094-.361-.391l.035-.011-.243-.355c.303.315-.173-.354.025-.246-.189-.316-.188-.327-.577-.867l-.029.158c-.555-.669.122-.123-.266-.709l-.08.108c-.399-.958-1.094-1.323-1.451-1.984.29.316.339.141.305.156-.429-.482-1.091-1.304-1.656-1.689-.03-.302-.023-.388-.445-.939-.357-.352-.429-.386-.618-.426-.293-.394-1.038-.926-.969-1.04-.153.003-.311-.307-.574-.411l-.008-.079-.051.124c-.474-.775-1.215-.796-1.762-1.504l.142.061-.324-.176c-.015-.08.126-.019.183-.067-.454-.342-.92-.667-1.391-.986l.227.266c-.305-.19-.575-.211-.879-.496.678.197-.476-.305-.499-.48l.341.145c-.437-.247-.437-.247-.466-.115-.583-.282-.265-.434-.855-.603l.37.211c.071.127-.242.063-.492-.07-.049-.049-.2-.193-.002-.105-.469-.201-1.125-.6-1.352-.647-.232-.153-.112-.197.038-.163-1.038-.358-.438-.236-1.488-.566l.046-.06-.38-.063-.445-.337.146.157c-.339-.118-.566-.149-.948-.327l.195-.044c-.975-.28-1.06-.552-2.031-.68-.059-.036.096-.03.175-.025-.908-.076-.605-.368-1.534-.385.062-.022-.023-.089.018-.11l-.418-.021.062-.134-.373.136-.22-.2-.172.037c-.38-.358-1.032-.263-1.6-.549l.077.196c-1.542.149-3.446-.576-5.303-.356l.03-.145-.754.196c-.413-.098.239-.133.109-.202-.811.12-.329.226-1.267.333-.489-.052.159-.126.383-.188-.881.126-2.165.367-2.795.391-.012.022-.046.053-.013.056-.572.155-1.346.239-1.979.392.001-.068.157-.113.312-.161-.229.041-.554.064-.732.181l.209-.18c-.496.088-1.399.45-1.546.341.074.037.079.148-.337.266-.297-.148-1.097.438-1.785.565.061-.078.537-.258.401-.213-.349.059-.609.265-.868.44l.056-.117c-.491.229-.974.472-1.449.728-.315-.115-1.367.673-1.336.484-.52.251.476-.13-.165.22-.218.001-.563.343-.604.201l.061-.051-.445.25.217-.276c-.378.232-.585.522-.553.624-.402.133-.874.495-1.102.485l.113-.111c-.962.659-1.852.735-2.46 1.483-.067.025-.082-.008.036-.093l-.587.431.072-.19c-.288.287-.567.582-.842.878l-.034-.065c-.635.482-1.543 1.339-2.25 2.081l.085-.132c-.71.869-.807.723-1.305 1.378a.184.184 0 0 1 .036-.084l-.486.553.055-.168c-.246.507-1.16 1.07-.846.893-.143.284-.405.753-.387.881-.478.643-.195.098-.538.462-.349.468-.306.622-.8 1.238l-.052-.053-.535.977.051-.148c-.309.789-.729.789-.772 1.519-.227.276-.488.891-.604.794a55.158 55.158 0 0 0-1.026 2.706c-.28.065-.075.208-.42.746l.136.003c-.501 1.362-1.292 2.887-1.584 4.491l-.134.018.068.347C.339 27.3.036 29.552 0 30.946c.048.46.184 1.151.153 1.872l-.019-.078.345 3.937c-.065-.076-.084.063-.139-.085.183.305.118.798.166 1.089l.039-.355c.18.366.16.935.109 1.147l.255.578c-.004.043-.01.108-.028.121l.088.092-.094.357c.069.142.3.927.527 1.13-.039.07.068.638-.077.216.185.728.388 1.452.625 2.167l-.06-.353c.11-.082.4.53.472.874-.257-.393-.184.026-.201.244.172.263.011-.289.134-.162.21.332.556 1.064.584 1.272l-.137-.191c.249.46.137.772.366 1.235.284.379.356.724.509.542.334.577-.019.297.057.5.234.234.616 1.086.583 1.244.448.162.819 1.612 1.131 1.579l.173.544c.069-.025.265-.025.541.323.172.389.015.378.029.525l.383.071c1.167 2.144 3.489 4.372 5.395 6.225.955.713 2.224 1.505 3.373 2.269l-.149-.054c.373.269.752.527 1.136.781-.265-.208-.533-.408-.791-.623.269.136.499.207.744.359 1.229.865 2.992 1.899 4.787 2.429 1.232.124.658.54 1.828.688-.103-.003-.15.027-.244.029 1.219.275 1.89.397 3.136.489-.203.275.791.157.651.29l.124-.104c.254.133.893.259.787.334l.565-.07.029.133c.718.126 2.277.165 2.645.433 1.814-.062 4.652-.083 6.901-.402.299-.153.947-.271 1.449-.386l.57.034c.507-.157.999-.477 1.493-.512.001.018-.015.035-.045.053.506-.168 1.017-.237 1.446-.523.557-.168 1.116-.291.996-.096-.03-.249 1.175-.399 1.176-.405-.01-.016 1.798-.605 4.366-2.06 2.563-1.441 5.833-3.872 8.55-7.144 2.747-3.238 4.857-7.279 5.908-10.988 1.084-3.71 1.175-6.998.909-8.795-.113-.248-.172-.913-.328-.663-.039-.509.183-.742.06-.842-.092.691-.32-.213-.483.457l-.025-.429c-.088-.089.093.584-.066.476l.231.125c-.039.348-.102.537-.184.657.08.328.386.557.189 1.333l.004-.218c-.046.638-.184.377-.233.506l.015-.139-.167.521c.119-.396-.015-1.077-.031-.727-.131.745.074-.19.053.376-.019.351-.135.24-.204.218l-.062.625c-.104-.035.053-.412-.087-.172l.014.797c-.287.106.002.874-.318 1.186.035-.569-.098.034-.171-.07-.077.454-.164.906-.26 1.357-.064.119-.006-.373-.037-.165-.126.236-.03.43-.064.566-.095.1-.253.999-.42.914-.376.86.12.443-.24 1.247-.138.075.184-.668-.04-.333l-.242.868c-.023-.094-.109-.222.015-.535-.917 2.266-1.982 3.193-2.879 5.163-.264.204.029-.234.059-.466-.61 1.46-1.352 1.758-2.082 2.849l.076.082c-1.326 1.312-2.612 3.117-4.237 4.429l.232-.114c-.134.274-.472.593-.695.855-.077-.008.036-.332-.393.092.12-.051.341-.187.317-.097-.767.481-1.871 1.313-3.16 2.126-1.281.822-2.754 1.606-4.104 2.145-3.549 1.727-7.835 2.429-11.67 2.485.587-.016.343.255-.104.198-1.202-.457-2.114.022-3.321-.422-2.259-.118-4.108-.959-6.175-1.312l.004-.135c-.272-.159-.382-.101-.692-.207l.021-.031c-.703-.313-1.61-.568-1.983-.818l-.087.118c-.422-.186-.168-.2-.626-.337l.045-.059-.551-.129c.163-.193-1.135-.633-1.386-.935-.533-.263-1.546-.788-2.243-1.369-.064-.198-.943-.868-1.434-1.376-1.073-.847-2.511-2.192-3.586-3.569l-.105.13-.3-.348c.032-.018.008-.077.065-.034-.077-.39-.697-.792-.82-1.16.014.275.172.271.326.48.166.346-.179.158-.419-.298l.035-.014-.272-.23c.081-.105-.055-.395.028-.502-.872-1.211-1.591-1.981-2.255-3.392.197.08-.524-.985-.163-.813-.474-.803-.117.226-.455-.088-.108-.237-.28-.463-.214-.543.103.088.054-.255.159-.07l-.262-.564c-.005-.062.079.051.119.107-.617-1.121-.648-2.149-1.102-3.191-.109-.056.104.439-.006.386-.494-1.054-.124-1.015-.497-2.021l.169.188c-.157-.315-.299-.441-.31-1.018.123-.124.208.447.336.698-.083-.378-.297-1.333-.373-1.017-.13-.45-.024-.642-.027-.893-.037-.004-.026.443-.137.184-.019-.639-.141-1.609-.184-2.384.036.004.088-.054.109.013-.231-.604.089-.558.019-1.404z"/><path d="M27.563 3.175l-.318.032c.006.032-.002.071-.139.134l.457-.166zM13.942 9.316c-.023.034-.047.067-.063.103.056-.054.065-.083.063-.103zM11.438 11.998c.16-.208-.032-.07-.146-.001.018.024.047.044.146.001zM36.128 2.598c-.058.007-.095.022-.089.054.079-.017.097-.035.089-.054zM56.14 14.43l-.039-.088c.002.02.017.051.039.088zM55.505 13.243a1.498 1.498 0 0 0-.188-.196c.07.096.134.154.188.196zM30.339 2.504a.725.725 0 0 0-.247.064.632.632 0 0 0 .247-.064zM55.115 12.856l-.205-.266c-.008.005-.016.007-.024.015l.229.251zM56.373 14.781c-.073-.108-.176-.251-.232-.351a.98.98 0 0 0 .232.351zM44.631 4.789l-.034-.012c-.264-.048-.104-.006.034.012zM53.961 11.93l-.026-.037-.095-.043zM57.136 15.997a.574.574 0 0 0-.112-.124l.089.167c.006-.025.013-.037.023-.043zM48.906 7.426c.108.007.159-.003.178-.024-.095-.061-.167-.079-.178.024z"/></g><path fill="#6E7072" d="M13.92 40.981l3.025-4.939 8.432.41-2.144 5.086zM17.241 35.484l2.455-4.145 7.768.31-1.776 4.251zM19.944 30.852l2.031-3.46 7.135.205-1.563 3.538zM22.216 26.951l1.812-2.94 6.562.115-1.238 3.033zM24.353 41.514l2.151-5.076 8.301.148-1.264 5.191zM26.707 35.866l1.719-4.247 7.636.06-1.048 4.343zM28.589 31.119l1.422-3.554 6.998-.017-.949 3.609zM30.179 27.114l1.289-3.017 6.427-.095-.72 3.094zM34.919 41.854l1.118-5.188 8.227-.159-.204 5.334zM36.147 36.081l.942-4.387 7.424-.226-.155 4.455zM37.149 31.178l.68-3.666 6.789-.289-.211 3.712zM37.901 27.045l.641-3.066 6.231-.248-.085 3.029zM45.104 41.736l.217-5.324 7.562-.281.957 5.237zM9.861 47.488l3.426-5.595 9.557.467-2.429 5.759zM21.685 48.089l2.439-5.75 9.169.161-1.2 5.89zM33.549 48.479l1.16-5.886 9.354.071-.374 5.803zM44.888 48.336l.184-5.639 8.993-.432 1.035 5.662zM45.302 35.821l.105-4.456 6.635-.321.711 4.499zM45.383 30.845l.071-3.716 6.006-.361.498 3.711zM45.452 26.658l-.015-2.927 5.493-.335.441 2.906zM41.422 11.714l-1.814-4.143-3.007 3.38-3.259-3.137-1.48 4.274-4.211-1.647.266 4.517-4.523.086 1.976 4.069-4.145 1.814 2.301 2.044 2.335-.066c.022-.407.06-.813.123-1.227.962-6.083 6.501-10.262 12.37-9.333 4.961.785 8.56 4.979 8.973 9.936l2.982-.089 2.413-2.507-4.277-1.477 1.648-4.213-4.517.265-.088-4.522-4.066 1.976z"/><path fill="#FFF" d="M27.381 22.328c.848-5.364 5.828-9.036 11.126-8.196 4.264.676 7.429 4.072 8.055 8.17l.764-.021c-.413-4.956-4.012-9.15-8.973-9.936-5.869-.929-11.408 3.25-12.37 9.333-.063.413-.101.819-.123 1.227l1.462-.044c.018-.175.028-.352.059-.533z"/><path fill="#6E7072" d="M38.507 14.132c-5.298-.84-10.278 2.832-11.126 8.196-.031.181-.041.357-.06.533l19.24-.56c-.625-4.097-3.79-7.493-8.054-8.169z"/></symbol><symbol viewBox="-1.46 -0.64 66 66" overflow="visible" id="vente" xmlns="http://www.w3.org/2000/svg"><ellipse fill="#FFF" cx="32.217" cy="31.998" rx="30.342" ry="30.586"/><g fill="#6E7072"><path d="M52.83 8.508a.123.123 0 0 0 .07-.024c-.041-.002-.061.008-.07.024zM39.344 1.031l.185.013c-.118-.024-.165-.023-.185-.013zM58.592 15.693c-.012-.009-.015-.006-.025-.011l.321.562-.296-.551zM8.565 10.263l.143-.158c-.065.07-.113.111-.143.158zM25.792.716c-.055.04-.155.072-.252.103.126-.023.225-.051.252-.103zM59.486 20.568l-.007-.268c-.036.02-.04.118.007.268zM61.996 29.166c.006-.008.012-.01.02-.025-.011-.013-.016.002-.02.025zM61.842 25.596l-.095-.242c.025.106.055.241.095.242zM61.698 25.24l.049.114c-.018-.066-.033-.12-.049-.114zM63.723 33.489c.014-.274-.047-.51-.102-.757l.102.757zM.875 38.851L.824 38.8c.025.053.04.058.051.051zM62.907 33.119l.027-.188a.843.843 0 0 0-.027.188zM57.128 16.494c-.211-.17-.398-.67-.476-.616.164.216.302.58.476.616zM6.096 43.618l.071.149a1.287 1.287 0 0 0-.071-.149zM62.907 33.119l-.03.218c.019-.018.033-.042.049-.063a.664.664 0 0 1-.019-.155zM20.848 62.259l-.01-.004-.066-.007zM22.409 62.969l-.357-.086c.181.07.282.086.357.086zM63.621 32.732l-.068-.43c.009.155.037.295.068.43zM40.565 63.257l-.159.056a.824.824 0 0 0 .159-.056zM27.057.538l.148-.004c.012-.024 0-.037-.148.004zM16.774 7.059l-.003.001.001.002zM17.237 6.637c-.178.078-.375.284-.463.422a1.67 1.67 0 0 0 .463-.422zM15.647 7.749l.065-.032a.328.328 0 0 0-.065.032zM27.029 3.203l-.002-.01-.006.01zM24.657 3.757a.734.734 0 0 0-.173.004.57.57 0 0 0 .173-.004zM11.22 11.915l-.002-.004-.007.009z"/><path d="M3.978 32.797c-.142-2.244-.037-5.205.551-7.38-.075-.519.094-1.219.265-1.919l.266.001.104-.593c.148-.207-.095.452.128.074l-.081-.264c.096-.019.574-1.42.405-.42a29.66 29.66 0 0 1 .865-2.134c.224-.458-.074-.364.233-.845.118-.069-.044.206.059.204.925-1.415.459-1.981 1.411-3.282l-.044.131c.091-.265.383-.693.359-.717-.332.026-.043.316-.438.641-.159-.153.236-.575.082-.64.28-.267.299-.523.485-.799.432-.381.854-1.075 1.252-1.298.122-.253.15-.632.539-1.083.409-.206.053.18.487-.207l-.03-.153c.336-.335.311-.256.342-.203.355-.359.164-.429.673-.819l-.165.336c.299-.364.447-.487.932-.923.039.063-.154.238-.309.353.386-.104.384-.475.544-.586-.079-.007-.428.286-.349.042.254-.202.402-.594.677-.634l-.187.326c.446-.521.169-.361.798-.824-.026.034.009.045.012.076.281-.439.881-.726 1.478-1.142l-.092.108c.209-.209.282-.39.417-.475-.384.18-.312.084-.413.007.573-.146.556-.689 1.397-1.075.025.07-.114.257-.364.33-.141.352-.077.515-.467.909.247-.237.569-.477.546-.357l-.021-.224c.168-.12.313-.195.446-.279.009-.153-.465.051-.102-.275.428-.345.351.019.377-.102.603-.446.153-.35.814-.646-.055.049-.16.148-.224.163.486-.188 1.098-.644 1.342-.499-.044.082-.024.152-.204.225l-.01-.035c-.417.417.394-.262.337.013-.093-.096.561-.396.866-.507l-.155-.088c.799-.853.066.28 1.013-.203.583-.355-.251.061.089-.195.434-.151.637-.099 1.239-.393.194-.012.577-.062.659.081.357-.2 1.18-.309 1.354-.523-.701.066-.604.359-1.432.417l.162-.227c.533-.17 1.196-.46 1.586-.503-.083-.01-.129-.04-.09-.086.757-.269.946-.48 1.725-.601.131.123-.323.191-.643.282.517.003.513-.117 1.29-.218.064.119-.517.09-.579.236l.836-.207c-.002.008.003.017.004.026.087-.229.65-.1 1.162-.23 1.237-.159 1.401-.451 2.091-.672.192.045.25.097.174.155-.316-.075-.256-.004-.36.058.425-.053.938.156.707.253.667-.087-.247-.103.16-.185.307-.009.614-.014.921-.01-.109-.108-.438-.128.042-.217.405-.038.601-.007 1.13.008-.078.052.161.168-.234.154.253.043.649.069.808-.033-.573-.13.953-.041.533-.232l.572.143c-.133-.013-.152.055-.346.021.151.176.477-.005.681-.004.202.047.726.128.762.195.188-.027.626.077.696.171.273.005.037-.104.124-.146l.912.169c.031.1.06.365-.082.373.356-.017.172-.244.688-.133-.33.109.649.284.179.397.266.188 1.09.379 1.553.465.318-.059-.469-.211-.404-.343 1.29.297 1.488-.044 2.403.335l-.225-.127c.608.13.538.119.918.133-.221.11.486.687 1.413 1.059.116-.048-.446-.385-.24-.45l.628.248c.039.032-.041.03-.13.016.579.191.911.688 1.158.58l.42.514-.16-.213c.114-.04.723.252.859.295.651.251.826.456 1.087.748-.062-.125-.229-.43.247-.163-.155.237.899.711.801.83.183.122.446.418.537.334l-.135.126c.188-.18.829.3 1.338.644-.32.181.543.399.549.815.241-.108.878.637 1.088.566.354.312.17.441.206.575l.219.086c.097.241.709.871 1.005 1.306l.48.218.051.198c.09.022.38.307.271.067l.165.207c.187-.132.288.241.699.59.049.119-.014.127-.108.056.163.208.003.191.033.35-.069-.188.905.5.545-.125.044-.097.353.197.479.431l-.065.249.355.128c.268.316.26.536.429.823-.204-.275-.743-.396-.248.314-.279-.361-.498-.48-.671-.644.098.149.134.232-.099.058.444.508.231.11.633.643-.169.07-.11.256.149.773l-.124-.434a.203.203 0 0 1 .086.042c-.074-.149-.076-.203-.038-.271.068.111.615.526.577.683-.115-.729.803.893.721.438.084.041.336.444.278.533-.396-.425.029.472-.128.453.146.158-.097-.451.1-.237.175.287.194.558.229.75l-.095-.108.167.494c.119.035-.097-.514.166-.113.024.129.276.538.205.555-.212-.148-.287.072-.491-.275.164.289.632 1.243.603.783l.163.366c-.035-.258-.209-.96.153-.236l-.036.009.353.459.012.263c.04-.025.115.04.189.236-.029.071.024.262-.049.273.234.558.293.482.373.537.132.314.141.445-.015.334.138.442.414 1.202.412 1.532.253.57.001-.133.221.179-.14.599.423 2 .64 2.993.219-.322.086.264.361.405-.12-.2-.055.985-.274.123l.115.529c-.09.385-.255-.86-.37-.279.104.587.456.939.434 1.66-.217-.217.119.538-.113.382-.082-.14-.081-.336-.12-.533l-.023.126c.066 1.312.269.356.458 1.037.076.807-.114.645-.204.696-.034.127.013.528.07.739-.137-.485.089-.912.221-.692-.203.364.017 1.199.104 1.422.219-1.166.006-.801.203-1.908-.084-.147-.268-.108-.245-.766.135.401.108-.038.131-.158-.102.137-.089-.449-.163-.643.072-.193.309.364.279-.308l-.283-.092c.005-.263.212.085.071-.458.179.279.209-.122.347.626.115-.932-.313-1.365-.54-2.03.03.067.067.068.098.135-.099-.135-.142-.402-.2-.601-.036-.466.195.333.241.202l-.162-.735c.005-.017.009-.021.015-.022-.076-.187-.148-.361-.099-.445.137.198.247.264.348.397l-.367-.731c.111.062-.018-.672.19-.142-.114-.377-.224-.754-.351-1.127l.146-.148c-.111-.263-.147-.26-.073.072-.063-.409-.856-1.6-.451-1.516-.46-.821-.518-1.157-1.052-2.147.505.723-.211-.991.236-.187-.155-.522-.376-.544-.592-.908-.104-.39.132-.313.384.047l-.299-.418.036-.008-.292-.346c-.131-.458.118-.174-.089-.612l-.192-.015-.076-.332c-.006.144-.169-.092-.359-.387l.035-.012-.241-.352c.3.312-.171-.351.025-.244-.188-.313-.186-.324-.572-.859l-.029.157c-.551-.664.122-.123-.262-.705l-.08.107c-.395-.95-1.086-1.311-1.439-1.967.287.313.337.139.303.154-.426-.478-1.081-1.293-1.643-1.674-.029-.301-.022-.386-.44-.934-.354-.349-.425-.383-.613-.422-.29-.391-1.029-.918-.96-1.031-.152.004-.308-.304-.569-.406l-.008-.079-.051.124c-.469-.771-1.206-.789-1.746-1.492l.14.06-.321-.174c-.015-.079.125-.02.182-.068-.45-.339-.912-.662-1.379-.978l.225.264c-.306-.186-.576-.206-.876-.488.673.194-.472-.302-.494-.477l.338.144c-.433-.245-.433-.245-.462-.113-.579-.279-.262-.432-.849-.598l.367.209c.07.127-.241.064-.488-.068-.049-.048-.198-.192-.002-.105-.465-.199-1.115-.595-1.34-.641-.23-.153-.111-.197.037-.164-1.029-.354-.433-.234-1.475-.561l.045-.06-.377-.063-.441-.335.146.156c-.337-.117-.562-.148-.94-.324l.193-.044c-.967-.277-1.05-.548-2.014-.675-.059-.036.095-.03.174-.025-.901-.073-.601-.367-1.521-.381.062-.022-.023-.089.018-.11l-.415-.02.062-.134-.37.137-.217-.196-.17.038c-.377-.357-1.023-.261-1.587-.547l.077.195c-1.529.151-3.418-.572-5.26-.354l.03-.145-.748.196c-.41-.099.237-.134.108-.203-.804.119-.327.226-1.257.333-.485-.052.157-.126.379-.188-.874.126-2.147.365-2.772.389-.011.022-.045.053-.012.056-.567.154-1.334.237-1.962.389 0-.068.155-.113.309-.161-.228.041-.55.063-.727.179l.208-.179c-.492.087-1.387.447-1.533.338.073.037.078.148-.334.265-.295-.148-1.087.436-1.77.56.06-.077.532-.257.397-.211-.346.058-.604.263-.861.437l.055-.116c-.486.228-.966.468-1.437.723-.313-.115-1.355.668-1.325.479-.516.25.473-.127-.164.219-.216 0-.558.341-.599.199l.061-.051-.442.249.215-.275c-.375.23-.58.519-.546.621-.399.132-.867.492-1.094.48l.111-.11c-.954.653-1.838.727-2.44 1.47-.067.024-.082-.009.035-.093l-.582.428.072-.19c-.285.285-.562.578-.834.872l-.034-.065c-.63.478-1.53 1.329-2.231 2.063l.084-.13c-.704.862-.801.716-1.295 1.366a.19.19 0 0 1 .035-.083l-.482.549.054-.167c-.243.503-1.151 1.061-.839.885-.141.282-.401.748-.382.875-.474.638-.195.097-.535.458-.346.464-.302.617-.793 1.228l-.052-.053-.53.969.051-.147c-.305.783-.724.782-.765 1.506-.226.273-.484.883-.601.788a54.897 54.897 0 0 0-1.016 2.685c-.279.064-.074.206-.418.74l.135.002c-.497 1.351-1.285 2.863-1.574 4.454l-.133.015.069.344C.335 27.075.035 29.309 0 30.691c.048.457.184 1.142.153 1.856l-.019-.076.343 3.904c-.065-.076-.084.062-.139-.084.182.302.117.791.164 1.08l.039-.353c.18.363.159.927.108 1.138l.254.573c-.003.043-.01.108-.028.12l.088.092-.095.354c.069.141.299.919.525 1.119-.039.07.067.634-.077.215.183.723.385 1.44.619 2.149l-.059-.35c.109-.081.397.524.468.866-.256-.389-.183.026-.202.243.171.261.012-.287.134-.161.209.329.552 1.055.58 1.262l-.136-.19c.247.457.134.767.362 1.227.283.375.354.718.506.536.332.572-.02.295.056.497.232.232.611 1.076.578 1.234.446.16.812 1.6 1.123 1.566l.17.539c.069-.024.264-.025.538.32.17.386.014.375.026.522l.381.068c1.156 2.128 3.46 4.338 5.349 6.176.948.707 2.207 1.492 3.346 2.249l-.147-.052c.37.266.746.522 1.126.774-.262-.207-.528-.405-.784-.618.267.134.495.204.738.355 1.219.858 2.966 1.886 4.747 2.409 1.223.121.652.538 1.812.685-.102-.004-.148.027-.242.029 1.209.272 1.875.393 3.111.482-.202.275.784.155.646.289l.123-.104c.252.132.885.258.78.333l.56-.071.028.133c.713.124 2.259.163 2.624.431 1.8-.064 4.614-.084 6.846-.4.296-.153.939-.27 1.438-.383l.565.035c.502-.157.99-.476 1.481-.51 0 .018-.016.035-.045.053.501-.166 1.008-.234 1.434-.521.553-.166 1.108-.287.989-.093-.03-.249 1.165-.396 1.166-.401-.01-.016 1.783-.6 4.331-2.043 2.543-1.43 5.786-3.84 8.481-7.085 2.725-3.213 4.817-7.222 5.858-10.9 1.074-3.681 1.163-6.942.897-8.725-.114-.246-.173-.904-.329-.657-.039-.505.183-.735.06-.835-.092.685-.32-.211-.483.453l-.025-.425c-.088-.088.093.579-.066.473l.231.124c-.039.345-.102.533-.184.651.08.325.386.553.19 1.321l.004-.215c-.046.632-.184.374-.233.501l.015-.138-.166.517c.118-.393-.017-1.068-.032-.721-.13.738.074-.188.053.372-.018.349-.134.239-.204.217l-.062.619c-.104-.034.053-.408-.087-.171l.015.791c-.287.104.003.866-.317 1.176.035-.564-.098.033-.171-.07-.076.45-.162.898-.257 1.345-.064.118-.007-.369-.037-.163-.126.234-.03.426-.063.562-.096.099-.251.99-.419.906-.373.853.122.44-.236 1.235-.138.075.182-.661-.041-.33l-.239.861c-.023-.094-.11-.221.013-.53-.91 2.244-1.971 3.162-2.858 5.115-.262.2.029-.233.057-.463-.603 1.448-1.341 1.74-2.064 2.821l.075.082c-1.316 1.298-2.589 3.089-4.2 4.387l.23-.112c-.132.272-.466.589-.688.85-.077-.009.034-.331-.39.089.118-.05.337-.184.314-.095-.76.477-1.855 1.301-3.133 2.105-1.27.814-2.729 1.591-4.066 2.124-3.517 1.712-7.763 2.405-11.563 2.462.582-.016.34.255-.104.198-1.191-.457-2.095.022-3.291-.42-2.239-.116-4.07-.952-6.118-1.3l.005-.134c-.27-.159-.379-.1-.686-.206l.021-.03c-.696-.312-1.595-.563-1.965-.812l-.086.118c-.418-.183-.167-.198-.621-.334l.044-.058-.546-.127c.162-.194-1.124-.628-1.373-.928-.528-.26-1.532-.779-2.223-1.355-.062-.198-.934-.861-1.42-1.364-1.063-.839-2.489-2.173-3.554-3.537l-.105.129-.297-.343c.032-.019.009-.078.065-.035-.075-.387-.691-.784-.812-1.149.013.273.17.268.322.476.164.343-.179.158-.417-.294l.035-.014-.271-.228c.081-.106-.053-.393.03-.499-.864-1.2-1.579-1.962-2.235-3.36.196.079-.52-.977-.16-.807-.471-.795-.117.224-.453-.085-.107-.236-.279-.459-.212-.539.103.087.055-.253.159-.069l-.259-.561c-.004-.062.079.051.119.107-.612-1.111-.64-2.131-1.092-3.163-.109-.055.103.436-.007.383-.491-1.044-.122-1.006-.492-2.003l.169.186c-.156-.312-.298-.437-.308-1.008.123-.123.208.443.335.691-.083-.374-.295-1.32-.371-1.006-.13-.447-.023-.636-.026-.886-.037-.003-.026.439-.137.183-.018-.633-.139-1.595-.182-2.362.036.005.087-.053.109.013-.224-.596.096-.551.026-1.389z"/><path d="M27.344 3.171l-.315.031c.006.032-.001.071-.138.133l.453-.164zM13.845 9.257c-.022.034-.046.066-.062.102.055-.053.064-.082.062-.102zM11.365 11.917c.158-.207-.032-.071-.146-.002.018.024.048.043.146.002zM35.832 2.597c-.057.007-.094.022-.088.054.078-.018.096-.035.088-.054zM55.666 14.324l-.039-.088c.001.02.017.051.039.088zM55.038 13.146a1.426 1.426 0 0 0-.187-.194c.07.095.133.152.187.194zM30.094 2.504a.72.72 0 0 0-.245.064.637.637 0 0 0 .245-.064zM54.65 12.763l-.203-.263c-.008.005-.016.006-.024.014l.227.249zM55.896 14.672c-.072-.107-.174-.25-.229-.348a.949.949 0 0 0 .229.348zM44.261 4.766l-.034-.011c-.263-.047-.104-.006.034.011zM53.506 11.847l-.027-.037-.094-.043zM56.652 15.877a.591.591 0 0 0-.111-.123l.088.166c.006-.025.014-.036.023-.043zM48.496 7.382c.107.007.158-.004.177-.025-.094-.06-.166-.078-.177.025z"/></g><path fill="#6E7072" d="M53.858 23.15l2.095-.42-4.381-.724.895.965-2.806.328 1.056 1.097-.599.126c-5.384-10.09-18.298-8.914-21.479-8.165-5.541 1.308-9.723 3.35-9.723 3.35-3.35-1.878-4.494-.98-4.494-.98-.735 2.615.817 5.476.817 5.476-2.86 3.104-2.451 7.38-2.451 7.38-1.552.273-3.268 2.422-2.614 5.772.654 3.352 4.983 3.352 4.983 3.352 1.39 2.777 3.187 3.92 3.187 3.92l.246 4.576 2.532.164.082-2.859.736.326.327 4.248h3.595l-.327-2.777s-8.906-.082 8.251 0a32.386 32.386 0 0 0 3.096-.135c.195-.018.379-.047.568-.068l.299 1.08h2.859l-.215-1.598a19.787 19.787 0 0 0 2.257-.686l.368 3.244s2.941.082 2.941.051c0-.018-.227-3.787-.404-4.691 6.188-3.729 6.939-9.861 6.939-9.861.015-3.762-.57-6.814-1.553-9.307l2.59-.598-1.152-1.245 2.223-.506-.744-.835zm-37.434 3.42c.383 0 .695.567.695 1.267 0 .698-.312 1.266-.695 1.266s-.694-.567-.694-1.266c-.001-.7.311-1.267.694-1.267zm-3.554 9.641c-.383 0-.694-.283-.694-.635 0-.348.311-.631.694-.631.384 0 .694.283.694.631 0 .352-.31.635-.694.635zm2.859.635c-.383 0-.694-.285-.694-.635s.311-.635.694-.635c.384 0 .694.285.694.635s-.309.635-.694.635zm.695 3.123c6.169-5.637-.694-8.905-.694-8.905s4.33-1.635 5.474 2.696c1.143 4.33-4.78 6.209-4.78 6.209zm4.779-9.239c-.383 0-.694-.567-.694-1.266 0-.699.311-1.267.694-1.267.384 0 .695.567.695 1.267 0 .699-.311 1.266-.695 1.266zm7.026-12.901c7.185-2.141 10.785 0 10.785 0v1.389c-4.983-1.961-10.785 0-10.785 0v-1.389zm-4.002 7.516s-1.961-3.351-1.226-4.82c.735-1.472 5.065 1.388 5.556 1.633.49.246-2.615-.49-4.33 3.187zm17.142 10.528l-11.718 9.082 3.724-6.084-3.724-.068 3.81-6.594h-5.666l5.859-10.202h7.617l-3.809 6.348 5.077-.097-5.565 7.616h4.395z"/><circle fill="#6E7072" stroke="#6E7072" stroke-miterlimit="10" cx="33.633" cy="12.897" r="4.817"/><path fill="#FFF" d="M35.168 15.233a2.647 2.647 0 0 1-1.223.297c-.777 0-1.474-.313-1.913-.893a2.21 2.21 0 0 1-.439-1.021h-.509v-.556h.431v-.133c0-.078.007-.157.007-.235h-.438v-.556h.524c.095-.425.29-.783.541-1.065.439-.51 1.066-.811 1.811-.811.471 0 .893.111 1.176.237l-.219.894a2.35 2.35 0 0 0-.879-.188c-.369 0-.713.133-.957.423-.117.124-.195.306-.25.51h1.951v.556h-2.068c-.008.078-.008.157-.008.242v.126h2.077v.556h-1.967c.056.236.141.417.258.55.252.282.621.399 1.012.399.36 0 .729-.117.895-.204l.187.872z"/></symbol></svg>